<?xml version="1.0" encoding="utf-8" standalone="no"?>
<!DOCTYPE svg PUBLIC "-//W3C//DTD SVG 1.1//EN"
  "http://www.w3.org/Graphics/SVG/1.1/DTD/svg11.dtd">
<!-- Created with matplotlib (http://matplotlib.org/) -->
<svg height="345.6pt" version="1.1" viewBox="0 0 460.8 345.6" width="460.8pt" xmlns="http://www.w3.org/2000/svg" xmlns:xlink="http://www.w3.org/1999/xlink">
 <defs>
  <style type="text/css">
*{stroke-linecap:butt;stroke-linejoin:round;}
  </style>
 </defs>
 <g id="figure_1">
  <g id="patch_1">
   <path d="M 0 345.6 
L 460.8 345.6 
L 460.8 0 
L 0 0 
z
" style="fill:#ffffff;"/>
  </g>
  <g id="axes_1">
   <g id="patch_2">
    <path d="M 57.6 307.584 
L 414.72 307.584 
L 414.72 41.472 
L 57.6 41.472 
z
" style="fill:#ffffff;"/>
   </g>
   <g id="matplotlib.axis_1">
    <g id="xtick_1">
     <g id="line2d_1">
      <path clip-path="url(#p973a094dbe)" d="M 73.832727 307.584 
L 73.832727 41.472 
" style="fill:none;stroke:#b0b0b0;stroke-linecap:square;stroke-width:0.8;"/>
     </g>
     <g id="line2d_2">
      <defs>
       <path d="M 0 0 
L 0 3.5 
" id="m47b6fd4e00" style="stroke:#000000;stroke-width:0.8;"/>
      </defs>
      <g>
       <use style="stroke:#000000;stroke-width:0.8;" x="73.832727" xlink:href="#m47b6fd4e00" y="307.584"/>
      </g>
     </g>
     <g id="text_1">
      <!-- 0 -->
      <defs>
       <path d="M 31.78125 66.40625 
Q 24.171875 66.40625 20.328125 58.90625 
Q 16.5 51.421875 16.5 36.375 
Q 16.5 21.390625 20.328125 13.890625 
Q 24.171875 6.390625 31.78125 6.390625 
Q 39.453125 6.390625 43.28125 13.890625 
Q 47.125 21.390625 47.125 36.375 
Q 47.125 51.421875 43.28125 58.90625 
Q 39.453125 66.40625 31.78125 66.40625 
z
M 31.78125 74.21875 
Q 44.046875 74.21875 50.515625 64.515625 
Q 56.984375 54.828125 56.984375 36.375 
Q 56.984375 17.96875 50.515625 8.265625 
Q 44.046875 -1.421875 31.78125 -1.421875 
Q 19.53125 -1.421875 13.0625 8.265625 
Q 6.59375 17.96875 6.59375 36.375 
Q 6.59375 54.828125 13.0625 64.515625 
Q 19.53125 74.21875 31.78125 74.21875 
z
" id="DejaVuSans-30"/>
      </defs>
      <g transform="translate(70.651477 322.182437)scale(0.1 -0.1)">
       <use xlink:href="#DejaVuSans-30"/>
      </g>
     </g>
    </g>
    <g id="xtick_2">
     <g id="line2d_3">
      <path clip-path="url(#p973a094dbe)" d="M 114.618474 307.584 
L 114.618474 41.472 
" style="fill:none;stroke:#b0b0b0;stroke-linecap:square;stroke-width:0.8;"/>
     </g>
     <g id="line2d_4">
      <g>
       <use style="stroke:#000000;stroke-width:0.8;" x="114.618474" xlink:href="#m47b6fd4e00" y="307.584"/>
      </g>
     </g>
     <g id="text_2">
      <!-- 25 -->
      <defs>
       <path d="M 19.1875 8.296875 
L 53.609375 8.296875 
L 53.609375 0 
L 7.328125 0 
L 7.328125 8.296875 
Q 12.9375 14.109375 22.625 23.890625 
Q 32.328125 33.6875 34.8125 36.53125 
Q 39.546875 41.84375 41.421875 45.53125 
Q 43.3125 49.21875 43.3125 52.78125 
Q 43.3125 58.59375 39.234375 62.25 
Q 35.15625 65.921875 28.609375 65.921875 
Q 23.96875 65.921875 18.8125 64.3125 
Q 13.671875 62.703125 7.8125 59.421875 
L 7.8125 69.390625 
Q 13.765625 71.78125 18.9375 73 
Q 24.125 74.21875 28.421875 74.21875 
Q 39.75 74.21875 46.484375 68.546875 
Q 53.21875 62.890625 53.21875 53.421875 
Q 53.21875 48.921875 51.53125 44.890625 
Q 49.859375 40.875 45.40625 35.40625 
Q 44.1875 33.984375 37.640625 27.21875 
Q 31.109375 20.453125 19.1875 8.296875 
z
" id="DejaVuSans-32"/>
       <path d="M 10.796875 72.90625 
L 49.515625 72.90625 
L 49.515625 64.59375 
L 19.828125 64.59375 
L 19.828125 46.734375 
Q 21.96875 47.46875 24.109375 47.828125 
Q 26.265625 48.1875 28.421875 48.1875 
Q 40.625 48.1875 47.75 41.5 
Q 54.890625 34.8125 54.890625 23.390625 
Q 54.890625 11.625 47.5625 5.09375 
Q 40.234375 -1.421875 26.90625 -1.421875 
Q 22.3125 -1.421875 17.546875 -0.640625 
Q 12.796875 0.140625 7.71875 1.703125 
L 7.71875 11.625 
Q 12.109375 9.234375 16.796875 8.0625 
Q 21.484375 6.890625 26.703125 6.890625 
Q 35.15625 6.890625 40.078125 11.328125 
Q 45.015625 15.765625 45.015625 23.390625 
Q 45.015625 31 40.078125 35.4375 
Q 35.15625 39.890625 26.703125 39.890625 
Q 22.75 39.890625 18.8125 39.015625 
Q 14.890625 38.140625 10.796875 36.28125 
z
" id="DejaVuSans-35"/>
      </defs>
      <g transform="translate(108.255974 322.182437)scale(0.1 -0.1)">
       <use xlink:href="#DejaVuSans-32"/>
       <use x="63.623047" xlink:href="#DejaVuSans-35"/>
      </g>
     </g>
    </g>
    <g id="xtick_3">
     <g id="line2d_5">
      <path clip-path="url(#p973a094dbe)" d="M 155.404221 307.584 
L 155.404221 41.472 
" style="fill:none;stroke:#b0b0b0;stroke-linecap:square;stroke-width:0.8;"/>
     </g>
     <g id="line2d_6">
      <g>
       <use style="stroke:#000000;stroke-width:0.8;" x="155.404221" xlink:href="#m47b6fd4e00" y="307.584"/>
      </g>
     </g>
     <g id="text_3">
      <!-- 50 -->
      <g transform="translate(149.041721 322.182437)scale(0.1 -0.1)">
       <use xlink:href="#DejaVuSans-35"/>
       <use x="63.623047" xlink:href="#DejaVuSans-30"/>
      </g>
     </g>
    </g>
    <g id="xtick_4">
     <g id="line2d_7">
      <path clip-path="url(#p973a094dbe)" d="M 196.189968 307.584 
L 196.189968 41.472 
" style="fill:none;stroke:#b0b0b0;stroke-linecap:square;stroke-width:0.8;"/>
     </g>
     <g id="line2d_8">
      <g>
       <use style="stroke:#000000;stroke-width:0.8;" x="196.189968" xlink:href="#m47b6fd4e00" y="307.584"/>
      </g>
     </g>
     <g id="text_4">
      <!-- 75 -->
      <defs>
       <path d="M 8.203125 72.90625 
L 55.078125 72.90625 
L 55.078125 68.703125 
L 28.609375 0 
L 18.3125 0 
L 43.21875 64.59375 
L 8.203125 64.59375 
z
" id="DejaVuSans-37"/>
      </defs>
      <g transform="translate(189.827468 322.182437)scale(0.1 -0.1)">
       <use xlink:href="#DejaVuSans-37"/>
       <use x="63.623047" xlink:href="#DejaVuSans-35"/>
      </g>
     </g>
    </g>
    <g id="xtick_5">
     <g id="line2d_9">
      <path clip-path="url(#p973a094dbe)" d="M 236.975715 307.584 
L 236.975715 41.472 
" style="fill:none;stroke:#b0b0b0;stroke-linecap:square;stroke-width:0.8;"/>
     </g>
     <g id="line2d_10">
      <g>
       <use style="stroke:#000000;stroke-width:0.8;" x="236.975715" xlink:href="#m47b6fd4e00" y="307.584"/>
      </g>
     </g>
     <g id="text_5">
      <!-- 100 -->
      <defs>
       <path d="M 12.40625 8.296875 
L 28.515625 8.296875 
L 28.515625 63.921875 
L 10.984375 60.40625 
L 10.984375 69.390625 
L 28.421875 72.90625 
L 38.28125 72.90625 
L 38.28125 8.296875 
L 54.390625 8.296875 
L 54.390625 0 
L 12.40625 0 
z
" id="DejaVuSans-31"/>
      </defs>
      <g transform="translate(227.431965 322.182437)scale(0.1 -0.1)">
       <use xlink:href="#DejaVuSans-31"/>
       <use x="63.623047" xlink:href="#DejaVuSans-30"/>
       <use x="127.246094" xlink:href="#DejaVuSans-30"/>
      </g>
     </g>
    </g>
    <g id="xtick_6">
     <g id="line2d_11">
      <path clip-path="url(#p973a094dbe)" d="M 277.761462 307.584 
L 277.761462 41.472 
" style="fill:none;stroke:#b0b0b0;stroke-linecap:square;stroke-width:0.8;"/>
     </g>
     <g id="line2d_12">
      <g>
       <use style="stroke:#000000;stroke-width:0.8;" x="277.761462" xlink:href="#m47b6fd4e00" y="307.584"/>
      </g>
     </g>
     <g id="text_6">
      <!-- 125 -->
      <g transform="translate(268.217712 322.182437)scale(0.1 -0.1)">
       <use xlink:href="#DejaVuSans-31"/>
       <use x="63.623047" xlink:href="#DejaVuSans-32"/>
       <use x="127.246094" xlink:href="#DejaVuSans-35"/>
      </g>
     </g>
    </g>
    <g id="xtick_7">
     <g id="line2d_13">
      <path clip-path="url(#p973a094dbe)" d="M 318.547209 307.584 
L 318.547209 41.472 
" style="fill:none;stroke:#b0b0b0;stroke-linecap:square;stroke-width:0.8;"/>
     </g>
     <g id="line2d_14">
      <g>
       <use style="stroke:#000000;stroke-width:0.8;" x="318.547209" xlink:href="#m47b6fd4e00" y="307.584"/>
      </g>
     </g>
     <g id="text_7">
      <!-- 150 -->
      <g transform="translate(309.003459 322.182437)scale(0.1 -0.1)">
       <use xlink:href="#DejaVuSans-31"/>
       <use x="63.623047" xlink:href="#DejaVuSans-35"/>
       <use x="127.246094" xlink:href="#DejaVuSans-30"/>
      </g>
     </g>
    </g>
    <g id="xtick_8">
     <g id="line2d_15">
      <path clip-path="url(#p973a094dbe)" d="M 359.332956 307.584 
L 359.332956 41.472 
" style="fill:none;stroke:#b0b0b0;stroke-linecap:square;stroke-width:0.8;"/>
     </g>
     <g id="line2d_16">
      <g>
       <use style="stroke:#000000;stroke-width:0.8;" x="359.332956" xlink:href="#m47b6fd4e00" y="307.584"/>
      </g>
     </g>
     <g id="text_8">
      <!-- 175 -->
      <g transform="translate(349.789206 322.182437)scale(0.1 -0.1)">
       <use xlink:href="#DejaVuSans-31"/>
       <use x="63.623047" xlink:href="#DejaVuSans-37"/>
       <use x="127.246094" xlink:href="#DejaVuSans-35"/>
      </g>
     </g>
    </g>
    <g id="xtick_9">
     <g id="line2d_17">
      <path clip-path="url(#p973a094dbe)" d="M 400.118703 307.584 
L 400.118703 41.472 
" style="fill:none;stroke:#b0b0b0;stroke-linecap:square;stroke-width:0.8;"/>
     </g>
     <g id="line2d_18">
      <g>
       <use style="stroke:#000000;stroke-width:0.8;" x="400.118703" xlink:href="#m47b6fd4e00" y="307.584"/>
      </g>
     </g>
     <g id="text_9">
      <!-- 200 -->
      <g transform="translate(390.574953 322.182437)scale(0.1 -0.1)">
       <use xlink:href="#DejaVuSans-32"/>
       <use x="63.623047" xlink:href="#DejaVuSans-30"/>
       <use x="127.246094" xlink:href="#DejaVuSans-30"/>
      </g>
     </g>
    </g>
    <g id="text_10">
     <!-- Generations -->
     <defs>
      <path d="M 59.515625 10.40625 
L 59.515625 29.984375 
L 43.40625 29.984375 
L 43.40625 38.09375 
L 69.28125 38.09375 
L 69.28125 6.78125 
Q 63.578125 2.734375 56.6875 0.65625 
Q 49.8125 -1.421875 42 -1.421875 
Q 24.90625 -1.421875 15.25 8.5625 
Q 5.609375 18.5625 5.609375 36.375 
Q 5.609375 54.25 15.25 64.234375 
Q 24.90625 74.21875 42 74.21875 
Q 49.125 74.21875 55.546875 72.453125 
Q 61.96875 70.703125 67.390625 67.28125 
L 67.390625 56.78125 
Q 61.921875 61.421875 55.765625 63.765625 
Q 49.609375 66.109375 42.828125 66.109375 
Q 29.4375 66.109375 22.71875 58.640625 
Q 16.015625 51.171875 16.015625 36.375 
Q 16.015625 21.625 22.71875 14.15625 
Q 29.4375 6.6875 42.828125 6.6875 
Q 48.046875 6.6875 52.140625 7.59375 
Q 56.25 8.5 59.515625 10.40625 
z
" id="DejaVuSans-47"/>
      <path d="M 56.203125 29.59375 
L 56.203125 25.203125 
L 14.890625 25.203125 
Q 15.484375 15.921875 20.484375 11.0625 
Q 25.484375 6.203125 34.421875 6.203125 
Q 39.59375 6.203125 44.453125 7.46875 
Q 49.3125 8.734375 54.109375 11.28125 
L 54.109375 2.78125 
Q 49.265625 0.734375 44.1875 -0.34375 
Q 39.109375 -1.421875 33.890625 -1.421875 
Q 20.796875 -1.421875 13.15625 6.1875 
Q 5.515625 13.8125 5.515625 26.8125 
Q 5.515625 40.234375 12.765625 48.109375 
Q 20.015625 56 32.328125 56 
Q 43.359375 56 49.78125 48.890625 
Q 56.203125 41.796875 56.203125 29.59375 
z
M 47.21875 32.234375 
Q 47.125 39.59375 43.09375 43.984375 
Q 39.0625 48.390625 32.421875 48.390625 
Q 24.90625 48.390625 20.390625 44.140625 
Q 15.875 39.890625 15.1875 32.171875 
z
" id="DejaVuSans-65"/>
      <path d="M 54.890625 33.015625 
L 54.890625 0 
L 45.90625 0 
L 45.90625 32.71875 
Q 45.90625 40.484375 42.875 44.328125 
Q 39.84375 48.1875 33.796875 48.1875 
Q 26.515625 48.1875 22.3125 43.546875 
Q 18.109375 38.921875 18.109375 30.90625 
L 18.109375 0 
L 9.078125 0 
L 9.078125 54.6875 
L 18.109375 54.6875 
L 18.109375 46.1875 
Q 21.34375 51.125 25.703125 53.5625 
Q 30.078125 56 35.796875 56 
Q 45.21875 56 50.046875 50.171875 
Q 54.890625 44.34375 54.890625 33.015625 
z
" id="DejaVuSans-6e"/>
      <path d="M 41.109375 46.296875 
Q 39.59375 47.171875 37.8125 47.578125 
Q 36.03125 48 33.890625 48 
Q 26.265625 48 22.1875 43.046875 
Q 18.109375 38.09375 18.109375 28.8125 
L 18.109375 0 
L 9.078125 0 
L 9.078125 54.6875 
L 18.109375 54.6875 
L 18.109375 46.1875 
Q 20.953125 51.171875 25.484375 53.578125 
Q 30.03125 56 36.53125 56 
Q 37.453125 56 38.578125 55.875 
Q 39.703125 55.765625 41.0625 55.515625 
z
" id="DejaVuSans-72"/>
      <path d="M 34.28125 27.484375 
Q 23.390625 27.484375 19.1875 25 
Q 14.984375 22.515625 14.984375 16.5 
Q 14.984375 11.71875 18.140625 8.90625 
Q 21.296875 6.109375 26.703125 6.109375 
Q 34.1875 6.109375 38.703125 11.40625 
Q 43.21875 16.703125 43.21875 25.484375 
L 43.21875 27.484375 
z
M 52.203125 31.203125 
L 52.203125 0 
L 43.21875 0 
L 43.21875 8.296875 
Q 40.140625 3.328125 35.546875 0.953125 
Q 30.953125 -1.421875 24.3125 -1.421875 
Q 15.921875 -1.421875 10.953125 3.296875 
Q 6 8.015625 6 15.921875 
Q 6 25.140625 12.171875 29.828125 
Q 18.359375 34.515625 30.609375 34.515625 
L 43.21875 34.515625 
L 43.21875 35.40625 
Q 43.21875 41.609375 39.140625 45 
Q 35.0625 48.390625 27.6875 48.390625 
Q 23 48.390625 18.546875 47.265625 
Q 14.109375 46.140625 10.015625 43.890625 
L 10.015625 52.203125 
Q 14.9375 54.109375 19.578125 55.046875 
Q 24.21875 56 28.609375 56 
Q 40.484375 56 46.34375 49.84375 
Q 52.203125 43.703125 52.203125 31.203125 
z
" id="DejaVuSans-61"/>
      <path d="M 18.3125 70.21875 
L 18.3125 54.6875 
L 36.8125 54.6875 
L 36.8125 47.703125 
L 18.3125 47.703125 
L 18.3125 18.015625 
Q 18.3125 11.328125 20.140625 9.421875 
Q 21.96875 7.515625 27.59375 7.515625 
L 36.8125 7.515625 
L 36.8125 0 
L 27.59375 0 
Q 17.1875 0 13.234375 3.875 
Q 9.28125 7.765625 9.28125 18.015625 
L 9.28125 47.703125 
L 2.6875 47.703125 
L 2.6875 54.6875 
L 9.28125 54.6875 
L 9.28125 70.21875 
z
" id="DejaVuSans-74"/>
      <path d="M 9.421875 54.6875 
L 18.40625 54.6875 
L 18.40625 0 
L 9.421875 0 
z
M 9.421875 75.984375 
L 18.40625 75.984375 
L 18.40625 64.59375 
L 9.421875 64.59375 
z
" id="DejaVuSans-69"/>
      <path d="M 30.609375 48.390625 
Q 23.390625 48.390625 19.1875 42.75 
Q 14.984375 37.109375 14.984375 27.296875 
Q 14.984375 17.484375 19.15625 11.84375 
Q 23.34375 6.203125 30.609375 6.203125 
Q 37.796875 6.203125 41.984375 11.859375 
Q 46.1875 17.53125 46.1875 27.296875 
Q 46.1875 37.015625 41.984375 42.703125 
Q 37.796875 48.390625 30.609375 48.390625 
z
M 30.609375 56 
Q 42.328125 56 49.015625 48.375 
Q 55.71875 40.765625 55.71875 27.296875 
Q 55.71875 13.875 49.015625 6.21875 
Q 42.328125 -1.421875 30.609375 -1.421875 
Q 18.84375 -1.421875 12.171875 6.21875 
Q 5.515625 13.875 5.515625 27.296875 
Q 5.515625 40.765625 12.171875 48.375 
Q 18.84375 56 30.609375 56 
z
" id="DejaVuSans-6f"/>
      <path d="M 44.28125 53.078125 
L 44.28125 44.578125 
Q 40.484375 46.53125 36.375 47.5 
Q 32.28125 48.484375 27.875 48.484375 
Q 21.1875 48.484375 17.84375 46.4375 
Q 14.5 44.390625 14.5 40.28125 
Q 14.5 37.15625 16.890625 35.375 
Q 19.28125 33.59375 26.515625 31.984375 
L 29.59375 31.296875 
Q 39.15625 29.25 43.1875 25.515625 
Q 47.21875 21.78125 47.21875 15.09375 
Q 47.21875 7.46875 41.1875 3.015625 
Q 35.15625 -1.421875 24.609375 -1.421875 
Q 20.21875 -1.421875 15.453125 -0.5625 
Q 10.6875 0.296875 5.421875 2 
L 5.421875 11.28125 
Q 10.40625 8.6875 15.234375 7.390625 
Q 20.0625 6.109375 24.8125 6.109375 
Q 31.15625 6.109375 34.5625 8.28125 
Q 37.984375 10.453125 37.984375 14.40625 
Q 37.984375 18.0625 35.515625 20.015625 
Q 33.0625 21.96875 24.703125 23.78125 
L 21.578125 24.515625 
Q 13.234375 26.265625 9.515625 29.90625 
Q 5.8125 33.546875 5.8125 39.890625 
Q 5.8125 47.609375 11.28125 51.796875 
Q 16.75 56 26.8125 56 
Q 31.78125 56 36.171875 55.265625 
Q 40.578125 54.546875 44.28125 53.078125 
z
" id="DejaVuSans-73"/>
     </defs>
     <g transform="translate(205.662344 335.860562)scale(0.1 -0.1)">
      <use xlink:href="#DejaVuSans-47"/>
      <use x="77.490234" xlink:href="#DejaVuSans-65"/>
      <use x="139.013672" xlink:href="#DejaVuSans-6e"/>
      <use x="202.392578" xlink:href="#DejaVuSans-65"/>
      <use x="263.916016" xlink:href="#DejaVuSans-72"/>
      <use x="305.029297" xlink:href="#DejaVuSans-61"/>
      <use x="366.308594" xlink:href="#DejaVuSans-74"/>
      <use x="405.517578" xlink:href="#DejaVuSans-69"/>
      <use x="433.300781" xlink:href="#DejaVuSans-6f"/>
      <use x="494.482422" xlink:href="#DejaVuSans-6e"/>
      <use x="557.861328" xlink:href="#DejaVuSans-73"/>
     </g>
    </g>
   </g>
   <g id="matplotlib.axis_2">
    <g id="ytick_1">
     <g id="line2d_19">
      <path clip-path="url(#p973a094dbe)" d="M 57.6 86.646481 
L 414.72 86.646481 
" style="fill:none;stroke:#b0b0b0;stroke-linecap:square;stroke-width:0.8;"/>
     </g>
     <g id="line2d_20">
      <defs>
       <path d="M 0 0 
L -3.5 0 
" id="madbe370fce" style="stroke:#000000;stroke-width:0.8;"/>
      </defs>
      <g>
       <use style="stroke:#000000;stroke-width:0.8;" x="57.6" xlink:href="#madbe370fce" y="86.646481"/>
      </g>
     </g>
     <g id="text_11">
      <!-- $\mathdefault{10^{3}}$ -->
      <defs>
       <path d="M 40.578125 39.3125 
Q 47.65625 37.796875 51.625 33 
Q 55.609375 28.21875 55.609375 21.1875 
Q 55.609375 10.40625 48.1875 4.484375 
Q 40.765625 -1.421875 27.09375 -1.421875 
Q 22.515625 -1.421875 17.65625 -0.515625 
Q 12.796875 0.390625 7.625 2.203125 
L 7.625 11.71875 
Q 11.71875 9.328125 16.59375 8.109375 
Q 21.484375 6.890625 26.8125 6.890625 
Q 36.078125 6.890625 40.9375 10.546875 
Q 45.796875 14.203125 45.796875 21.1875 
Q 45.796875 27.640625 41.28125 31.265625 
Q 36.765625 34.90625 28.71875 34.90625 
L 20.21875 34.90625 
L 20.21875 43.015625 
L 29.109375 43.015625 
Q 36.375 43.015625 40.234375 45.921875 
Q 44.09375 48.828125 44.09375 54.296875 
Q 44.09375 59.90625 40.109375 62.90625 
Q 36.140625 65.921875 28.71875 65.921875 
Q 24.65625 65.921875 20.015625 65.03125 
Q 15.375 64.15625 9.8125 62.3125 
L 9.8125 71.09375 
Q 15.4375 72.65625 20.34375 73.4375 
Q 25.25 74.21875 29.59375 74.21875 
Q 40.828125 74.21875 47.359375 69.109375 
Q 53.90625 64.015625 53.90625 55.328125 
Q 53.90625 49.265625 50.4375 45.09375 
Q 46.96875 40.921875 40.578125 39.3125 
z
" id="DejaVuSans-33"/>
      </defs>
      <g transform="translate(33 90.4457)scale(0.1 -0.1)">
       <use transform="translate(0 0.765625)" xlink:href="#DejaVuSans-31"/>
       <use transform="translate(63.623047 0.765625)" xlink:href="#DejaVuSans-30"/>
       <use transform="translate(128.203125 39.046875)scale(0.7)" xlink:href="#DejaVuSans-33"/>
      </g>
     </g>
    </g>
    <g id="ytick_2">
     <g id="line2d_21">
      <defs>
       <path d="M 0 0 
L -2 0 
" id="mc2f1a9d3bb" style="stroke:#000000;stroke-width:0.6;"/>
      </defs>
      <g>
       <use style="stroke:#000000;stroke-width:0.6;" x="57.6" xlink:href="#mc2f1a9d3bb" y="86.646481"/>
      </g>
     </g>
    </g>
    <g id="text_12">
     <!-- Fitness -->
     <defs>
      <path d="M 9.8125 72.90625 
L 51.703125 72.90625 
L 51.703125 64.59375 
L 19.671875 64.59375 
L 19.671875 43.109375 
L 48.578125 43.109375 
L 48.578125 34.8125 
L 19.671875 34.8125 
L 19.671875 0 
L 9.8125 0 
z
" id="DejaVuSans-46"/>
     </defs>
     <g transform="translate(26.920312 192.202219)rotate(-90)scale(0.1 -0.1)">
      <use xlink:href="#DejaVuSans-46"/>
      <use x="57.410156" xlink:href="#DejaVuSans-69"/>
      <use x="85.193359" xlink:href="#DejaVuSans-74"/>
      <use x="124.402344" xlink:href="#DejaVuSans-6e"/>
      <use x="187.78125" xlink:href="#DejaVuSans-65"/>
      <use x="249.304688" xlink:href="#DejaVuSans-73"/>
      <use x="301.404297" xlink:href="#DejaVuSans-73"/>
     </g>
    </g>
   </g>
   <g id="line2d_22">
    <path clip-path="url(#p973a094dbe)" d="M 73.832727 156.643695 
L 75.464157 163.843803 
L 77.095587 166.437718 
L 78.727017 152.86309 
L 80.358447 162.960033 
L 81.989877 161.103747 
L 83.621307 176.938363 
L 85.252736 178.805449 
L 86.884166 168.979168 
L 88.515596 161.637632 
L 90.147026 164.451984 
L 91.778456 155.169401 
L 93.409886 169.985 
L 95.041316 169.966643 
L 96.672746 250.696147 
L 98.304175 221.466858 
L 99.935605 268.069685 
L 101.567035 268.446903 
L 103.198465 238.958568 
L 104.829895 220.864373 
L 106.461325 214.769385 
L 108.092755 255.19122 
L 109.724185 246.618669 
L 111.355614 226.639473 
L 112.987044 241.420216 
L 114.618474 222.012589 
L 116.249904 212.816459 
L 117.881334 267.155596 
L 119.512764 224.716625 
L 121.144194 238.60323 
L 122.775624 235.50288 
L 124.407053 217.417435 
L 126.038483 255.026565 
L 127.669913 250.924736 
L 129.301343 205.636223 
L 130.932773 246.700784 
L 132.564203 222.276464 
L 134.195633 274.206767 
L 135.827063 199.478273 
L 137.458492 241.685449 
L 139.089922 211.168704 
L 140.721352 256.844714 
L 142.352782 253.038983 
L 143.984212 255.518931 
L 145.615642 244.656659 
L 147.247072 274.638191 
L 148.878502 249.92814 
L 150.509931 247.744904 
L 152.141361 218.961171 
L 153.772791 237.056082 
L 155.404221 231.631996 
L 157.035651 229.833286 
L 158.667081 230.329593 
L 160.298511 245.712687 
L 161.929941 241.207308 
L 163.56137 225.352811 
L 165.1928 247.551845 
L 166.82423 239.559461 
L 168.45566 232.903516 
L 170.08709 253.642265 
L 171.71852 229.433983 
L 173.34995 226.56086 
L 174.98138 239.221631 
L 176.61281 240.556576 
L 178.244239 228.192828 
L 179.875669 242.082426 
L 181.507099 244.93118 
L 183.138529 261.99227 
L 184.769959 243.866814 
L 186.401389 255.087873 
L 188.032819 236.248044 
L 189.664249 225.418366 
L 191.295678 258.802016 
L 192.927108 264.145397 
L 196.189968 244.067778 
L 197.821398 241.198158 
L 199.452828 270.305289 
L 201.084258 238.292276 
L 202.715688 228.859413 
L 204.347117 237.187681 
L 205.978547 232.495751 
L 207.609977 247.531456 
L 209.241407 245.323299 
L 210.872837 257.119818 
L 212.504267 233.558444 
L 214.135697 261.534532 
L 215.767127 271.139693 
L 217.398556 235.273737 
L 219.029986 230.458631 
L 220.661416 232.893049 
L 222.292846 228.6571 
L 223.924276 247.40339 
L 225.555706 247.633174 
L 227.187136 227.462452 
L 228.818566 251.893314 
L 230.449995 227.453046 
L 232.081425 250.320882 
L 233.712855 250.597811 
L 235.344285 253.323571 
L 236.975715 223.601045 
L 238.607145 237.118643 
L 240.238575 255.39534 
L 241.870005 241.346791 
L 243.501434 252.858005 
L 245.132864 218.9903 
L 246.764294 226.101197 
L 248.395724 260.484263 
L 250.027154 241.111359 
L 251.658584 243.04173 
L 253.290014 257.548154 
L 254.921444 242.466608 
L 256.552873 258.023005 
L 258.184303 249.193871 
L 259.815733 248.066362 
L 261.447163 243.98377 
L 263.078593 258.007281 
L 264.710023 252.942921 
L 266.341453 272.769418 
L 267.972883 247.044413 
L 269.604312 251.941117 
L 271.235742 249.381726 
L 272.867172 262.132304 
L 274.498602 269.074141 
L 276.130032 257.502732 
L 277.761462 273.763854 
L 279.392892 269.531032 
L 281.024322 251.943447 
L 282.655751 254.014964 
L 284.287181 246.79733 
L 285.918611 251.252501 
L 287.550041 262.592925 
L 289.181471 254.555126 
L 290.812901 240.80251 
L 292.444331 241.053671 
L 294.075761 273.956404 
L 297.33862 242.386475 
L 298.97005 242.853595 
L 300.60148 235.22766 
L 302.23291 191.428654 
L 303.86434 244.784324 
L 305.49577 241.959733 
L 307.1272 262.5329 
L 308.75863 241.668374 
L 310.390059 233.552192 
L 312.021489 237.95574 
L 313.652919 248.200422 
L 315.284349 235.329994 
L 316.915779 206.242993 
L 318.547209 247.490652 
L 320.178639 231.022819 
L 321.810069 295.488 
L 323.441498 266.734545 
L 325.072928 256.240485 
L 326.704358 260.225086 
L 328.335788 237.082665 
L 329.967218 221.794175 
L 331.598648 234.262242 
L 333.230078 219.126256 
L 334.861508 238.282017 
L 336.492937 246.824486 
L 338.124367 229.757406 
L 339.755797 262.603491 
L 341.387227 240.718103 
L 343.018657 247.006894 
L 344.650087 241.500215 
L 346.281517 245.151903 
L 347.912947 245.577364 
L 349.544376 258.990578 
L 351.175806 249.138124 
L 354.438666 262.788977 
L 356.070096 242.338219 
L 357.701526 268.623516 
L 359.332956 266.877498 
L 360.964386 215.17742 
L 362.595815 246.117122 
L 364.227245 231.890865 
L 365.858675 220.741168 
L 367.490105 213.788701 
L 369.121535 229.377424 
L 370.752965 230.948005 
L 372.384395 218.986387 
L 374.015825 228.130167 
L 375.647254 242.102181 
L 377.278684 207.163456 
L 378.910114 249.718401 
L 380.541544 246.924961 
L 382.172974 217.962965 
L 383.804404 212.813297 
L 385.435834 239.820749 
L 387.067264 231.992159 
L 388.698693 251.544307 
L 390.330123 218.31754 
L 391.961553 231.786107 
L 393.592983 230.710266 
L 395.224413 230.689216 
L 396.855843 214.463834 
L 398.487273 219.320628 
L 398.487273 219.320628 
" style="fill:none;stroke:#0000ff;stroke-linecap:square;stroke-width:1.5;"/>
   </g>
   <g id="line2d_23">
    <path clip-path="url(#p973a094dbe)" d="M 73.832727 127.446515 
L 75.464157 132.724891 
L 77.095587 133.509503 
L 78.727017 121.430368 
L 80.358447 127.997992 
L 81.989877 123.399805 
L 83.621307 145.829256 
L 85.252736 153.688588 
L 86.884166 144.063614 
L 88.515596 129.57155 
L 90.147026 131.862243 
L 91.778456 117.048659 
L 93.409886 138.324811 
L 95.041316 131.792725 
L 96.672746 217.891731 
L 98.304175 178.291249 
L 99.935605 236.469616 
L 101.567035 212.709273 
L 103.198465 198.688685 
L 104.829895 180.353584 
L 106.461325 183.977578 
L 108.092755 215.628757 
L 109.724185 208.069386 
L 111.355614 181.820779 
L 112.987044 212.999195 
L 114.618474 185.475602 
L 116.249904 165.342333 
L 117.881334 237.964695 
L 119.512764 192.486124 
L 121.144194 208.439972 
L 122.775624 184.306073 
L 124.407053 182.062463 
L 126.038483 226.971288 
L 127.669913 207.198315 
L 129.301343 166.59953 
L 130.932773 210.929555 
L 132.564203 179.104779 
L 134.195633 238.485853 
L 135.827063 142.53309 
L 137.458492 213.506438 
L 139.089922 171.749113 
L 140.721352 218.618117 
L 142.352782 206.763828 
L 143.984212 227.230039 
L 145.615642 211.206385 
L 147.247072 242.084802 
L 148.878502 212.435891 
L 150.509931 208.132407 
L 152.141361 183.239596 
L 153.772791 203.71582 
L 155.404221 190.575929 
L 157.035651 193.491386 
L 158.667081 191.933875 
L 160.298511 213.885215 
L 161.929941 209.549557 
L 163.56137 184.433545 
L 165.1928 213.463214 
L 166.82423 208.656788 
L 168.45566 195.32581 
L 170.08709 217.81718 
L 171.71852 193.818365 
L 173.34995 176.10255 
L 174.98138 211.600817 
L 176.61281 196.100644 
L 178.244239 192.296896 
L 179.875669 208.911998 
L 181.507099 195.437852 
L 183.138529 224.751846 
L 184.769959 206.384582 
L 186.401389 221.231727 
L 188.032819 199.389066 
L 189.664249 186.682482 
L 191.295678 229.495882 
L 192.927108 229.544219 
L 194.558538 212.404407 
L 196.189968 202.349869 
L 197.821398 204.205458 
L 199.452828 239.23741 
L 201.084258 208.849345 
L 202.715688 186.67846 
L 204.347117 192.589968 
L 205.978547 190.115135 
L 207.609977 221.296484 
L 209.241407 210.010707 
L 210.872837 214.829739 
L 212.504267 191.753782 
L 214.135697 224.671771 
L 215.767127 242.622156 
L 217.398556 196.787868 
L 219.029986 192.800539 
L 220.661416 190.373024 
L 222.292846 180.452065 
L 223.924276 219.55232 
L 225.555706 216.397853 
L 227.187136 185.908059 
L 228.818566 213.802921 
L 230.449995 185.067455 
L 232.081425 192.456123 
L 233.712855 209.556641 
L 235.344285 205.201368 
L 236.975715 168.760917 
L 238.607145 195.709145 
L 240.238575 224.559588 
L 241.870005 208.123982 
L 243.501434 208.460012 
L 245.132864 163.470097 
L 246.764294 180.032046 
L 248.395724 226.127987 
L 250.027154 202.336791 
L 251.658584 187.852049 
L 253.290014 208.247722 
L 254.921444 195.098635 
L 256.552873 226.286893 
L 258.184303 195.80569 
L 259.815733 212.402603 
L 261.447163 206.715091 
L 263.078593 221.098522 
L 264.710023 216.034759 
L 266.341453 243.029273 
L 267.972883 199.203286 
L 269.604312 208.022507 
L 271.235742 207.643111 
L 272.867172 229.274689 
L 274.498602 217.106865 
L 276.130032 225.074648 
L 277.761462 228.051306 
L 279.392892 221.228064 
L 281.024322 215.321334 
L 282.655751 215.8982 
L 284.287181 204.070735 
L 285.918611 220.858154 
L 287.550041 221.669542 
L 289.181471 219.338268 
L 290.812901 194.336921 
L 292.444331 200.621347 
L 294.075761 242.294572 
L 295.70719 217.699628 
L 297.33862 199.316943 
L 298.97005 191.502735 
L 300.60148 205.361186 
L 302.23291 154.657725 
L 303.86434 204.058062 
L 305.49577 184.028139 
L 307.1272 234.777164 
L 308.75863 198.610402 
L 310.390059 197.472684 
L 312.021489 203.120968 
L 313.652919 203.083344 
L 315.284349 202.02274 
L 316.915779 162.352307 
L 318.547209 211.679042 
L 320.178639 190.524333 
L 321.810069 261.744719 
L 323.441498 231.053826 
L 325.072928 217.044573 
L 326.704358 219.953124 
L 328.335788 198.489523 
L 329.967218 186.839059 
L 331.598648 198.988712 
L 333.230078 179.505128 
L 334.861508 204.530367 
L 336.492937 206.89459 
L 338.124367 187.266326 
L 339.755797 234.440663 
L 341.387227 202.816695 
L 343.018657 216.242783 
L 344.650087 193.372716 
L 346.281517 216.58017 
L 347.912947 209.884074 
L 349.544376 222.626185 
L 351.175806 218.712401 
L 352.807236 224.858507 
L 354.438666 227.527143 
L 356.070096 200.722713 
L 357.701526 232.652292 
L 359.332956 229.626577 
L 360.964386 174.247748 
L 362.595815 211.195813 
L 364.227245 195.860562 
L 365.858675 173.323873 
L 367.490105 176.625361 
L 369.121535 183.561585 
L 370.752965 181.175447 
L 372.384395 179.696852 
L 374.015825 187.79343 
L 375.647254 186.201441 
L 377.278684 165.55667 
L 378.910114 215.07169 
L 380.541544 212.050582 
L 382.172974 179.270357 
L 383.804404 174.687336 
L 385.435834 201.327709 
L 387.067264 191.715933 
L 388.698693 213.934686 
L 390.330123 183.263329 
L 391.961553 198.427097 
L 393.592983 192.39489 
L 395.224413 193.631202 
L 396.855843 178.763109 
L 398.487273 179.644784 
L 398.487273 179.644784 
" style="fill:none;stroke:#008000;stroke-dasharray:9.6,2.4,1.5,2.4;stroke-dashoffset:0;stroke-width:1.5;"/>
   </g>
   <g id="line2d_24">
    <path clip-path="url(#p973a094dbe)" d="M 73.832727 60.511204 
L 75.464157 84.694887 
L 77.095587 88.208293 
L 78.727017 76.107764 
L 80.358447 89.014028 
L 81.989877 53.568 
L 83.621307 74.238224 
L 85.252736 126.360675 
L 86.884166 120.430703 
L 88.515596 81.761634 
L 90.147026 86.514166 
L 91.778456 53.936826 
L 93.409886 59.401106 
L 95.041316 83.544454 
L 96.672746 186.03428 
L 98.304175 121.551511 
L 99.935605 193.89865 
L 101.567035 104.069401 
L 103.198465 172.575218 
L 104.829895 121.347603 
L 106.461325 128.011711 
L 108.092755 138.703107 
L 109.724185 148.432021 
L 111.355614 117.990275 
L 112.987044 166.223257 
L 114.618474 91.957539 
L 116.249904 126.924055 
L 117.881334 196.843618 
L 119.512764 160.013988 
L 121.144194 155.3674 
L 122.775624 80.76576 
L 124.407053 132.184826 
L 126.038483 188.680704 
L 127.669913 150.234456 
L 129.301343 90.56996 
L 130.932773 169.711871 
L 132.564203 147.606596 
L 134.195633 195.196952 
L 135.827063 79.057171 
L 137.458492 182.165278 
L 139.089922 133.453737 
L 140.721352 158.647527 
L 142.352782 101.008811 
L 143.984212 195.310643 
L 145.615642 180.072477 
L 147.247072 208.204256 
L 148.878502 162.531425 
L 150.509931 133.563051 
L 152.141361 153.436237 
L 153.772791 139.078511 
L 155.404221 146.089551 
L 157.035651 119.152437 
L 158.667081 144.281225 
L 160.298511 172.605453 
L 161.929941 169.404045 
L 163.56137 116.823347 
L 165.1928 181.048924 
L 166.82423 171.10169 
L 168.45566 130.94626 
L 170.08709 185.953398 
L 171.71852 158.393095 
L 173.34995 139.26128 
L 174.98138 159.328181 
L 176.61281 156.788901 
L 178.244239 126.00806 
L 179.875669 145.147713 
L 181.507099 101.332164 
L 183.138529 158.293622 
L 184.769959 164.20209 
L 186.401389 163.275178 
L 188.032819 152.588777 
L 189.664249 117.400646 
L 191.295678 153.839625 
L 192.927108 193.756753 
L 194.558538 175.421395 
L 196.189968 125.761754 
L 197.821398 148.190531 
L 199.452828 183.052608 
L 201.084258 147.440165 
L 202.715688 144.26267 
L 204.347117 113.303283 
L 205.978547 112.189515 
L 207.609977 189.853525 
L 209.241407 136.960383 
L 210.872837 127.456754 
L 212.504267 140.910607 
L 214.135697 177.708547 
L 215.767127 196.767476 
L 217.398556 126.671001 
L 219.029986 138.897737 
L 220.661416 126.613332 
L 222.292846 105.917169 
L 223.924276 184.745148 
L 225.555706 179.193641 
L 227.187136 105.248249 
L 228.818566 173.771081 
L 230.449995 117.774421 
L 232.081425 111.129718 
L 233.712855 164.355056 
L 235.344285 131.898789 
L 236.975715 95.012409 
L 238.607145 165.318774 
L 240.238575 178.896785 
L 241.870005 146.840389 
L 243.501434 141.608094 
L 245.132864 70.348269 
L 246.764294 147.697795 
L 248.395724 182.883422 
L 250.027154 140.66432 
L 251.658584 120.650024 
L 253.290014 134.073098 
L 254.921444 133.064886 
L 256.552873 160.610493 
L 258.184303 94.766101 
L 259.815733 138.049236 
L 261.447163 162.710032 
L 263.078593 159.513276 
L 264.710023 160.164236 
L 266.341453 202.347733 
L 267.972883 137.115004 
L 269.604312 147.911807 
L 271.235742 154.287988 
L 272.867172 179.512488 
L 274.498602 127.053523 
L 276.130032 160.520068 
L 277.761462 124.634761 
L 279.392892 169.97112 
L 281.024322 143.988201 
L 282.655751 159.792831 
L 284.287181 124.697691 
L 285.918611 158.219874 
L 287.550041 133.27944 
L 289.181471 182.340879 
L 290.812901 111.440042 
L 292.444331 161.566205 
L 294.075761 190.947364 
L 295.70719 137.176368 
L 297.33862 142.292706 
L 298.97005 128.316917 
L 300.60148 174.788487 
L 302.23291 132.481423 
L 303.86434 175.957299 
L 305.49577 116.019693 
L 307.1272 201.76925 
L 308.75863 155.424509 
L 310.390059 148.924882 
L 312.021489 149.340867 
L 313.652919 114.982296 
L 315.284349 161.750309 
L 316.915779 88.078596 
L 318.547209 149.015351 
L 320.178639 138.630654 
L 321.810069 201.564703 
L 323.441498 177.233697 
L 325.072928 165.718734 
L 326.704358 141.715617 
L 328.335788 173.03664 
L 329.967218 147.876528 
L 331.598648 147.85217 
L 333.230078 124.379335 
L 334.861508 161.882435 
L 336.492937 155.905242 
L 338.124367 160.580994 
L 339.755797 185.078547 
L 341.387227 139.048148 
L 343.018657 163.374499 
L 344.650087 105.625898 
L 346.281517 174.496207 
L 347.912947 146.566036 
L 349.544376 135.846209 
L 351.175806 188.927685 
L 352.807236 171.22761 
L 354.438666 189.583407 
L 356.070096 154.359207 
L 357.701526 196.06969 
L 359.332956 157.410777 
L 360.964386 143.913399 
L 362.595815 166.41124 
L 364.227245 153.821903 
L 365.858675 127.926139 
L 367.490105 126.565226 
L 369.121535 103.037297 
L 370.752965 115.426242 
L 372.384395 117.260831 
L 374.015825 141.680351 
L 375.647254 109.975372 
L 377.278684 110.032113 
L 378.910114 176.826111 
L 380.541544 180.44342 
L 382.172974 146.954308 
L 383.804404 126.162462 
L 385.435834 154.475636 
L 387.067264 119.339363 
L 388.698693 172.542419 
L 390.330123 126.714848 
L 391.961553 169.006326 
L 393.592983 143.573611 
L 395.224413 131.415701 
L 396.855843 127.791783 
L 398.487273 142.478993 
L 398.487273 142.478993 
" style="fill:none;stroke:#ff0000;stroke-linecap:square;stroke-width:1.5;"/>
   </g>
   <g id="patch_3">
    <path d="M 57.6 307.584 
L 57.6 41.472 
" style="fill:none;stroke:#000000;stroke-linecap:square;stroke-linejoin:miter;stroke-width:0.8;"/>
   </g>
   <g id="patch_4">
    <path d="M 414.72 307.584 
L 414.72 41.472 
" style="fill:none;stroke:#000000;stroke-linecap:square;stroke-linejoin:miter;stroke-width:0.8;"/>
   </g>
   <g id="patch_5">
    <path d="M 57.6 307.584 
L 414.72 307.584 
" style="fill:none;stroke:#000000;stroke-linecap:square;stroke-linejoin:miter;stroke-width:0.8;"/>
   </g>
   <g id="patch_6">
    <path d="M 57.6 41.472 
L 414.72 41.472 
" style="fill:none;stroke:#000000;stroke-linecap:square;stroke-linejoin:miter;stroke-width:0.8;"/>
   </g>
   <g id="text_13">
    <!-- Population's average and best fitness -->
    <defs>
     <path d="M 19.671875 64.796875 
L 19.671875 37.40625 
L 32.078125 37.40625 
Q 38.96875 37.40625 42.71875 40.96875 
Q 46.484375 44.53125 46.484375 51.125 
Q 46.484375 57.671875 42.71875 61.234375 
Q 38.96875 64.796875 32.078125 64.796875 
z
M 9.8125 72.90625 
L 32.078125 72.90625 
Q 44.34375 72.90625 50.609375 67.359375 
Q 56.890625 61.8125 56.890625 51.125 
Q 56.890625 40.328125 50.609375 34.8125 
Q 44.34375 29.296875 32.078125 29.296875 
L 19.671875 29.296875 
L 19.671875 0 
L 9.8125 0 
z
" id="DejaVuSans-50"/>
     <path d="M 18.109375 8.203125 
L 18.109375 -20.796875 
L 9.078125 -20.796875 
L 9.078125 54.6875 
L 18.109375 54.6875 
L 18.109375 46.390625 
Q 20.953125 51.265625 25.265625 53.625 
Q 29.59375 56 35.59375 56 
Q 45.5625 56 51.78125 48.09375 
Q 58.015625 40.1875 58.015625 27.296875 
Q 58.015625 14.40625 51.78125 6.484375 
Q 45.5625 -1.421875 35.59375 -1.421875 
Q 29.59375 -1.421875 25.265625 0.953125 
Q 20.953125 3.328125 18.109375 8.203125 
z
M 48.6875 27.296875 
Q 48.6875 37.203125 44.609375 42.84375 
Q 40.53125 48.484375 33.40625 48.484375 
Q 26.265625 48.484375 22.1875 42.84375 
Q 18.109375 37.203125 18.109375 27.296875 
Q 18.109375 17.390625 22.1875 11.75 
Q 26.265625 6.109375 33.40625 6.109375 
Q 40.53125 6.109375 44.609375 11.75 
Q 48.6875 17.390625 48.6875 27.296875 
z
" id="DejaVuSans-70"/>
     <path d="M 8.5 21.578125 
L 8.5 54.6875 
L 17.484375 54.6875 
L 17.484375 21.921875 
Q 17.484375 14.15625 20.5 10.265625 
Q 23.53125 6.390625 29.59375 6.390625 
Q 36.859375 6.390625 41.078125 11.03125 
Q 45.3125 15.671875 45.3125 23.6875 
L 45.3125 54.6875 
L 54.296875 54.6875 
L 54.296875 0 
L 45.3125 0 
L 45.3125 8.40625 
Q 42.046875 3.421875 37.71875 1 
Q 33.40625 -1.421875 27.6875 -1.421875 
Q 18.265625 -1.421875 13.375 4.4375 
Q 8.5 10.296875 8.5 21.578125 
z
M 31.109375 56 
z
" id="DejaVuSans-75"/>
     <path d="M 9.421875 75.984375 
L 18.40625 75.984375 
L 18.40625 0 
L 9.421875 0 
z
" id="DejaVuSans-6c"/>
     <path d="M 17.921875 72.90625 
L 17.921875 45.796875 
L 9.625 45.796875 
L 9.625 72.90625 
z
" id="DejaVuSans-27"/>
     <path id="DejaVuSans-20"/>
     <path d="M 2.984375 54.6875 
L 12.5 54.6875 
L 29.59375 8.796875 
L 46.6875 54.6875 
L 56.203125 54.6875 
L 35.6875 0 
L 23.484375 0 
z
" id="DejaVuSans-76"/>
     <path d="M 45.40625 27.984375 
Q 45.40625 37.75 41.375 43.109375 
Q 37.359375 48.484375 30.078125 48.484375 
Q 22.859375 48.484375 18.828125 43.109375 
Q 14.796875 37.75 14.796875 27.984375 
Q 14.796875 18.265625 18.828125 12.890625 
Q 22.859375 7.515625 30.078125 7.515625 
Q 37.359375 7.515625 41.375 12.890625 
Q 45.40625 18.265625 45.40625 27.984375 
z
M 54.390625 6.78125 
Q 54.390625 -7.171875 48.1875 -13.984375 
Q 42 -20.796875 29.203125 -20.796875 
Q 24.46875 -20.796875 20.265625 -20.09375 
Q 16.0625 -19.390625 12.109375 -17.921875 
L 12.109375 -9.1875 
Q 16.0625 -11.328125 19.921875 -12.34375 
Q 23.78125 -13.375 27.78125 -13.375 
Q 36.625 -13.375 41.015625 -8.765625 
Q 45.40625 -4.15625 45.40625 5.171875 
L 45.40625 9.625 
Q 42.625 4.78125 38.28125 2.390625 
Q 33.9375 0 27.875 0 
Q 17.828125 0 11.671875 7.65625 
Q 5.515625 15.328125 5.515625 27.984375 
Q 5.515625 40.671875 11.671875 48.328125 
Q 17.828125 56 27.875 56 
Q 33.9375 56 38.28125 53.609375 
Q 42.625 51.21875 45.40625 46.390625 
L 45.40625 54.6875 
L 54.390625 54.6875 
z
" id="DejaVuSans-67"/>
     <path d="M 45.40625 46.390625 
L 45.40625 75.984375 
L 54.390625 75.984375 
L 54.390625 0 
L 45.40625 0 
L 45.40625 8.203125 
Q 42.578125 3.328125 38.25 0.953125 
Q 33.9375 -1.421875 27.875 -1.421875 
Q 17.96875 -1.421875 11.734375 6.484375 
Q 5.515625 14.40625 5.515625 27.296875 
Q 5.515625 40.1875 11.734375 48.09375 
Q 17.96875 56 27.875 56 
Q 33.9375 56 38.25 53.625 
Q 42.578125 51.265625 45.40625 46.390625 
z
M 14.796875 27.296875 
Q 14.796875 17.390625 18.875 11.75 
Q 22.953125 6.109375 30.078125 6.109375 
Q 37.203125 6.109375 41.296875 11.75 
Q 45.40625 17.390625 45.40625 27.296875 
Q 45.40625 37.203125 41.296875 42.84375 
Q 37.203125 48.484375 30.078125 48.484375 
Q 22.953125 48.484375 18.875 42.84375 
Q 14.796875 37.203125 14.796875 27.296875 
z
" id="DejaVuSans-64"/>
     <path d="M 48.6875 27.296875 
Q 48.6875 37.203125 44.609375 42.84375 
Q 40.53125 48.484375 33.40625 48.484375 
Q 26.265625 48.484375 22.1875 42.84375 
Q 18.109375 37.203125 18.109375 27.296875 
Q 18.109375 17.390625 22.1875 11.75 
Q 26.265625 6.109375 33.40625 6.109375 
Q 40.53125 6.109375 44.609375 11.75 
Q 48.6875 17.390625 48.6875 27.296875 
z
M 18.109375 46.390625 
Q 20.953125 51.265625 25.265625 53.625 
Q 29.59375 56 35.59375 56 
Q 45.5625 56 51.78125 48.09375 
Q 58.015625 40.1875 58.015625 27.296875 
Q 58.015625 14.40625 51.78125 6.484375 
Q 45.5625 -1.421875 35.59375 -1.421875 
Q 29.59375 -1.421875 25.265625 0.953125 
Q 20.953125 3.328125 18.109375 8.203125 
L 18.109375 0 
L 9.078125 0 
L 9.078125 75.984375 
L 18.109375 75.984375 
z
" id="DejaVuSans-62"/>
     <path d="M 37.109375 75.984375 
L 37.109375 68.5 
L 28.515625 68.5 
Q 23.6875 68.5 21.796875 66.546875 
Q 19.921875 64.59375 19.921875 59.515625 
L 19.921875 54.6875 
L 34.71875 54.6875 
L 34.71875 47.703125 
L 19.921875 47.703125 
L 19.921875 0 
L 10.890625 0 
L 10.890625 47.703125 
L 2.296875 47.703125 
L 2.296875 54.6875 
L 10.890625 54.6875 
L 10.890625 58.5 
Q 10.890625 67.625 15.140625 71.796875 
Q 19.390625 75.984375 28.609375 75.984375 
z
" id="DejaVuSans-66"/>
    </defs>
    <g transform="translate(123.315 35.472)scale(0.12 -0.12)">
     <use xlink:href="#DejaVuSans-50"/>
     <use x="60.255859" xlink:href="#DejaVuSans-6f"/>
     <use x="121.4375" xlink:href="#DejaVuSans-70"/>
     <use x="184.914062" xlink:href="#DejaVuSans-75"/>
     <use x="248.292969" xlink:href="#DejaVuSans-6c"/>
     <use x="276.076172" xlink:href="#DejaVuSans-61"/>
     <use x="337.355469" xlink:href="#DejaVuSans-74"/>
     <use x="376.564453" xlink:href="#DejaVuSans-69"/>
     <use x="404.347656" xlink:href="#DejaVuSans-6f"/>
     <use x="465.529297" xlink:href="#DejaVuSans-6e"/>
     <use x="528.908203" xlink:href="#DejaVuSans-27"/>
     <use x="556.398438" xlink:href="#DejaVuSans-73"/>
     <use x="608.498047" xlink:href="#DejaVuSans-20"/>
     <use x="640.285156" xlink:href="#DejaVuSans-61"/>
     <use x="701.564453" xlink:href="#DejaVuSans-76"/>
     <use x="760.744141" xlink:href="#DejaVuSans-65"/>
     <use x="822.267578" xlink:href="#DejaVuSans-72"/>
     <use x="863.380859" xlink:href="#DejaVuSans-61"/>
     <use x="924.660156" xlink:href="#DejaVuSans-67"/>
     <use x="988.136719" xlink:href="#DejaVuSans-65"/>
     <use x="1049.660156" xlink:href="#DejaVuSans-20"/>
     <use x="1081.447266" xlink:href="#DejaVuSans-61"/>
     <use x="1142.726562" xlink:href="#DejaVuSans-6e"/>
     <use x="1206.105469" xlink:href="#DejaVuSans-64"/>
     <use x="1269.582031" xlink:href="#DejaVuSans-20"/>
     <use x="1301.369141" xlink:href="#DejaVuSans-62"/>
     <use x="1364.845703" xlink:href="#DejaVuSans-65"/>
     <use x="1426.369141" xlink:href="#DejaVuSans-73"/>
     <use x="1478.46875" xlink:href="#DejaVuSans-74"/>
     <use x="1517.677734" xlink:href="#DejaVuSans-20"/>
     <use x="1549.464844" xlink:href="#DejaVuSans-66"/>
     <use x="1584.669922" xlink:href="#DejaVuSans-69"/>
     <use x="1612.453125" xlink:href="#DejaVuSans-74"/>
     <use x="1651.662109" xlink:href="#DejaVuSans-6e"/>
     <use x="1715.041016" xlink:href="#DejaVuSans-65"/>
     <use x="1776.564453" xlink:href="#DejaVuSans-73"/>
     <use x="1828.664062" xlink:href="#DejaVuSans-73"/>
    </g>
   </g>
   <g id="legend_1">
    <g id="patch_7">
     <path d="M 334.779375 93.506375 
L 407.72 93.506375 
Q 409.72 93.506375 409.72 91.506375 
L 409.72 48.472 
Q 409.72 46.472 407.72 46.472 
L 334.779375 46.472 
Q 332.779375 46.472 332.779375 48.472 
L 332.779375 91.506375 
Q 332.779375 93.506375 334.779375 93.506375 
z
" style="fill:#ffffff;opacity:0.8;stroke:#cccccc;stroke-linejoin:miter;"/>
    </g>
    <g id="line2d_25">
     <path d="M 336.779375 54.570438 
L 356.779375 54.570438 
" style="fill:none;stroke:#0000ff;stroke-linecap:square;stroke-width:1.5;"/>
    </g>
    <g id="line2d_26"/>
    <g id="text_14">
     <!-- average -->
     <g transform="translate(364.779375 58.070438)scale(0.1 -0.1)">
      <use xlink:href="#DejaVuSans-61"/>
      <use x="61.279297" xlink:href="#DejaVuSans-76"/>
      <use x="120.458984" xlink:href="#DejaVuSans-65"/>
      <use x="181.982422" xlink:href="#DejaVuSans-72"/>
      <use x="223.095703" xlink:href="#DejaVuSans-61"/>
      <use x="284.375" xlink:href="#DejaVuSans-67"/>
      <use x="347.851562" xlink:href="#DejaVuSans-65"/>
     </g>
    </g>
    <g id="line2d_27">
     <path d="M 336.779375 69.248563 
L 356.779375 69.248563 
" style="fill:none;stroke:#008000;stroke-dasharray:9.6,2.4,1.5,2.4;stroke-dashoffset:0;stroke-width:1.5;"/>
    </g>
    <g id="line2d_28"/>
    <g id="text_15">
     <!-- +1 sd -->
     <defs>
      <path d="M 46 62.703125 
L 46 35.5 
L 73.1875 35.5 
L 73.1875 27.203125 
L 46 27.203125 
L 46 0 
L 37.796875 0 
L 37.796875 27.203125 
L 10.59375 27.203125 
L 10.59375 35.5 
L 37.796875 35.5 
L 37.796875 62.703125 
z
" id="DejaVuSans-2b"/>
     </defs>
     <g transform="translate(364.779375 72.748563)scale(0.1 -0.1)">
      <use xlink:href="#DejaVuSans-2b"/>
      <use x="83.789062" xlink:href="#DejaVuSans-31"/>
      <use x="147.412109" xlink:href="#DejaVuSans-20"/>
      <use x="179.199219" xlink:href="#DejaVuSans-73"/>
      <use x="231.298828" xlink:href="#DejaVuSans-64"/>
     </g>
    </g>
    <g id="line2d_29">
     <path d="M 336.779375 83.926688 
L 356.779375 83.926688 
" style="fill:none;stroke:#ff0000;stroke-linecap:square;stroke-width:1.5;"/>
    </g>
    <g id="line2d_30"/>
    <g id="text_16">
     <!-- best -->
     <g transform="translate(364.779375 87.426688)scale(0.1 -0.1)">
      <use xlink:href="#DejaVuSans-62"/>
      <use x="63.476562" xlink:href="#DejaVuSans-65"/>
      <use x="125" xlink:href="#DejaVuSans-73"/>
      <use x="177.099609" xlink:href="#DejaVuSans-74"/>
     </g>
    </g>
   </g>
  </g>
 </g>
 <defs>
  <clipPath id="p973a094dbe">
   <rect height="266.112" width="357.12" x="57.6" y="41.472"/>
  </clipPath>
 </defs>
</svg>
