<?xml version="1.0" encoding="UTF-8" standalone="no"?>
<!DOCTYPE svg PUBLIC "-//W3C//DTD SVG 1.1//EN"
 "http://www.w3.org/Graphics/SVG/1.1/DTD/svg11.dtd">
<!-- Generated by graphviz version 2.38.0 (20140413.2041)
 -->
<!-- Title: %3 Pages: 1 -->
<svg width="421pt" height="549pt"
 viewBox="0.00 0.00 420.60 548.88" xmlns="http://www.w3.org/2000/svg" xmlns:xlink="http://www.w3.org/1999/xlink">
<g id="graph0" class="graph" transform="scale(1 1) rotate(0) translate(4 544.884)">
<title>%3</title>
<polygon fill="white" stroke="none" points="-4,4 -4,-544.884 416.604,-544.884 416.604,4 -4,4"/>
<!-- x -->
<g id="node1" class="node"><title>x</title>
<polygon fill="lightgray" stroke="black" points="132.749,-540.884 112.749,-540.884 112.749,-522.884 132.749,-522.884 132.749,-540.884"/>
<text text-anchor="middle" x="122.749" y="-529.684" font-family="Times New Roman,serif" font-size="9.00">x</text>
</g>
<!-- dx -->
<g id="node2" class="node"><title>dx</title>
<polygon fill="lightgray" stroke="black" points="281.249,-300.141 256.249,-300.141 256.249,-282.141 281.249,-282.141 281.249,-300.141"/>
<text text-anchor="middle" x="268.749" y="-288.941" font-family="Times New Roman,serif" font-size="9.00">dx</text>
</g>
<!-- 760 -->
<g id="node11" class="node"><title>760</title>
<ellipse fill="white" stroke="black" cx="274.749" cy="-205.643" rx="21.4286" ry="21.4286"/>
<text text-anchor="middle" x="274.749" y="-203.443" font-family="Times New Roman,serif" font-size="9.00">760</text>
</g>
<!-- dx&#45;&gt;760 -->
<g id="edge3" class="edge"><title>dx&#45;&gt;760</title>
<path fill="none" stroke="green" stroke-width="0.558167" d="M269.324,-282.135C270.065,-271.822 271.396,-253.304 272.554,-237.19"/>
<polygon fill="green" stroke="green" stroke-width="0.558167" points="276.056,-237.284 273.282,-227.059 269.074,-236.782 276.056,-237.284"/>
</g>
<!-- 1785 -->
<g id="node12" class="node"><title>1785</title>
<ellipse fill="white" stroke="black" cx="210.749" cy="-205.643" rx="25" ry="25"/>
<text text-anchor="middle" x="210.749" y="-203.443" font-family="Times New Roman,serif" font-size="9.00">1785</text>
</g>
<!-- dx&#45;&gt;1785 -->
<g id="edge20" class="edge"><title>dx&#45;&gt;1785</title>
<path fill="none" stroke="green" stroke-width="0.210652" d="M263.187,-282.135C255.654,-271.29 241.819,-251.372 230.25,-234.718"/>
<polygon fill="green" stroke="green" stroke-width="0.210652" points="233.032,-232.588 224.453,-226.371 227.283,-236.581 233.032,-232.588"/>
</g>
<!-- theta -->
<g id="node3" class="node"><title>theta</title>
<polygon fill="lightgray" stroke="black" points="186.249,-540.884 151.249,-540.884 151.249,-522.884 186.249,-522.884 186.249,-540.884"/>
<text text-anchor="middle" x="168.749" y="-529.684" font-family="Times New Roman,serif" font-size="9.00">theta</text>
</g>
<!-- 1 -->
<g id="node5" class="node"><title>1</title>
<ellipse fill="lightblue" stroke="black" cx="288.749" cy="-462.136" rx="14.7" ry="14.7"/>
<text text-anchor="middle" x="288.749" y="-459.936" font-family="Times New Roman,serif" font-size="9.00">1</text>
</g>
<!-- theta&#45;&gt;1 -->
<g id="edge1" class="edge"><title>theta&#45;&gt;1</title>
<path fill="none" stroke="red" stroke-width="2.74128" d="M182.986,-522.847C203.813,-511.088 242.752,-489.104 267.128,-475.342"/>
<polygon fill="red" stroke="red" stroke-width="2.74128" points="269.001,-478.304 275.988,-470.34 265.56,-472.208 269.001,-478.304"/>
</g>
<!-- 1642 -->
<g id="node8" class="node"><title>1642</title>
<ellipse fill="white" stroke="black" cx="62.7487" cy="-376.638" rx="25" ry="25"/>
<text text-anchor="middle" x="62.7487" y="-374.438" font-family="Times New Roman,serif" font-size="9.00">1642</text>
</g>
<!-- theta&#45;&gt;1642 -->
<g id="edge26" class="edge"><title>theta&#45;&gt;1642</title>
<path fill="none" stroke="red" stroke-width="0.143008" d="M151.167,-524.186C128.41,-515.163 90.6125,-498.855 81.7487,-486.884 65.8533,-465.418 61.607,-435.129 61.0516,-411.887"/>
<polygon fill="red" stroke="red" stroke-width="0.143008" points="64.5514,-411.753 61.0276,-401.761 57.5514,-411.77 64.5514,-411.753"/>
</g>
<!-- 1495 -->
<g id="node10" class="node"><title>1495</title>
<ellipse fill="white" stroke="black" cx="115.749" cy="-462.136" rx="25" ry="25"/>
<text text-anchor="middle" x="115.749" y="-459.936" font-family="Times New Roman,serif" font-size="9.00">1495</text>
</g>
<!-- theta&#45;&gt;1495 -->
<g id="edge8" class="edge"><title>theta&#45;&gt;1495</title>
<path fill="none" stroke="green" stroke-width="0.269535" d="M162.461,-522.847C156.134,-514.759 146.022,-501.833 136.821,-490.072"/>
<polygon fill="green" stroke="green" stroke-width="0.269535" points="139.574,-487.91 130.655,-482.191 134.06,-492.223 139.574,-487.91"/>
</g>
<!-- 1695 -->
<g id="node13" class="node"><title>1695</title>
<ellipse fill="white" stroke="black" cx="168.749" cy="-291.141" rx="25" ry="25"/>
<text text-anchor="middle" x="168.749" y="-288.941" font-family="Times New Roman,serif" font-size="9.00">1695</text>
</g>
<!-- theta&#45;&gt;1695 -->
<g id="edge17" class="edge"><title>theta&#45;&gt;1695</title>
<path fill="none" stroke="red" stroke-width="0.167891" d="M168.749,-522.666C168.749,-491.932 168.749,-382.64 168.749,-326.29"/>
<polygon fill="red" stroke="red" stroke-width="0.167891" points="172.249,-326.09 168.749,-316.09 165.249,-326.09 172.249,-326.09"/>
</g>
<!-- 1182 -->
<g id="node17" class="node"><title>1182</title>
<ellipse fill="none" stroke="black" cx="362.749" cy="-115.196" rx="25" ry="25"/>
<text text-anchor="middle" x="362.749" y="-112.996" font-family="Times New Roman,serif" font-size="9.00">1182</text>
</g>
<!-- theta&#45;&gt;1182 -->
<g id="edge11" class="edge"><title>theta&#45;&gt;1182</title>
<path fill="none" stroke="red" stroke-width="0.515182" d="M186.487,-529.873C233.813,-526.798 361.4,-515.931 389.749,-486.884 424.17,-451.615 408.749,-426.921 408.749,-377.638 408.749,-377.638 408.749,-377.638 408.749,-290.141 408.749,-238.966 389.91,-182.053 376.344,-147.704"/>
<polygon fill="red" stroke="red" stroke-width="0.515182" points="379.501,-146.174 372.504,-138.219 373.013,-148.801 379.501,-146.174"/>
</g>
<!-- control -->
<g id="node4" class="node"><title>control</title>
<ellipse fill="lightblue" stroke="black" cx="210.749" cy="-115.196" rx="29.8983" ry="29.8983"/>
<text text-anchor="middle" x="210.749" y="-112.996" font-family="Times New Roman,serif" font-size="9.00">control</text>
</g>
<!-- 1416 -->
<g id="node16" class="node"><title>1416</title>
<ellipse fill="none" stroke="black" cx="288.749" cy="-376.638" rx="25" ry="25"/>
<text text-anchor="middle" x="288.749" y="-374.438" font-family="Times New Roman,serif" font-size="9.00">1416</text>
</g>
<!-- 1&#45;&gt;1416 -->
<g id="edge7" class="edge"><title>1&#45;&gt;1416</title>
<path fill="none" stroke="red" stroke-width="0.559326" d="M288.749,-446.971C288.749,-437.302 288.749,-424.06 288.749,-411.738"/>
<polygon fill="red" stroke="red" stroke-width="0.559326" points="292.249,-411.703 288.749,-401.703 285.249,-411.703 292.249,-411.703"/>
</g>
<!-- 1668 -->
<g id="node19" class="node"><title>1668</title>
<ellipse fill="none" stroke="black" cx="355.749" cy="-376.638" rx="25" ry="25"/>
<text text-anchor="middle" x="355.749" y="-374.438" font-family="Times New Roman,serif" font-size="9.00">1668</text>
</g>
<!-- 1&#45;&gt;1668 -->
<g id="edge19" class="edge"><title>1&#45;&gt;1668</title>
<path fill="none" stroke="green" stroke-width="0.235846" d="M297.785,-449.875C307.067,-438.307 321.86,-419.872 334.177,-404.521"/>
<polygon fill="green" stroke="green" stroke-width="0.235846" points="337.187,-406.363 340.715,-396.373 331.727,-401.982 337.187,-406.363"/>
</g>
<!-- 1891 -->
<g id="node6" class="node"><title>1891</title>
<ellipse fill="white" stroke="black" cx="221.749" cy="-376.638" rx="25" ry="25"/>
<text text-anchor="middle" x="221.749" y="-374.438" font-family="Times New Roman,serif" font-size="9.00">1891</text>
</g>
<!-- 1891&#45;&gt;1785 -->
<g id="edge25" class="edge"><title>1891&#45;&gt;1785</title>
<path fill="none" stroke="green" stroke-width="0.546883" d="M220.196,-351.784C218.304,-322.721 215.096,-273.428 212.95,-240.46"/>
<polygon fill="green" stroke="green" stroke-width="0.546883" points="216.436,-240.128 212.294,-230.376 209.451,-240.583 216.436,-240.128"/>
</g>
<!-- 1687 -->
<g id="node7" class="node"><title>1687</title>
<ellipse fill="white" stroke="black" cx="24.7487" cy="-291.141" rx="25" ry="25"/>
<text text-anchor="middle" x="24.7487" y="-288.941" font-family="Times New Roman,serif" font-size="9.00">1687</text>
</g>
<!-- 365 -->
<g id="node9" class="node"><title>365</title>
<ellipse fill="white" stroke="black" cx="115.749" cy="-205.643" rx="21.4286" ry="21.4286"/>
<text text-anchor="middle" x="115.749" y="-203.443" font-family="Times New Roman,serif" font-size="9.00">365</text>
</g>
<!-- 1687&#45;&gt;365 -->
<g id="edge16" class="edge"><title>1687&#45;&gt;365</title>
<path fill="none" stroke="green" stroke-width="0.469921" d="M42.7274,-273.644C57.1068,-260.45 77.3604,-241.867 92.8907,-227.617"/>
<polygon fill="green" stroke="green" stroke-width="0.469921" points="95.5234,-229.951 100.525,-220.611 90.7908,-224.793 95.5234,-229.951"/>
</g>
<!-- 997 -->
<g id="node14" class="node"><title>997</title>
<ellipse fill="none" stroke="black" cx="115.749" cy="-115.196" rx="21.4286" ry="21.4286"/>
<text text-anchor="middle" x="115.749" y="-112.996" font-family="Times New Roman,serif" font-size="9.00">997</text>
</g>
<!-- 1687&#45;&gt;997 -->
<g id="edge22" class="edge"><title>1687&#45;&gt;997</title>
<path fill="none" stroke="red" stroke-width="0.450718" d="M35.9071,-268.812C52.4355,-237.218 83.4185,-177.995 101.545,-143.346"/>
<polygon fill="red" stroke="red" stroke-width="0.450718" points="104.76,-144.751 106.294,-134.268 98.5575,-141.506 104.76,-144.751"/>
</g>
<!-- 1642&#45;&gt;1687 -->
<g id="edge15" class="edge"><title>1642&#45;&gt;1687</title>
<path fill="none" stroke="green" stroke-width="0.317105" d="M52.7647,-353.7C48.532,-344.4 43.5222,-333.392 38.9178,-323.274"/>
<polygon fill="green" stroke="green" stroke-width="0.317105" points="41.994,-321.584 34.6661,-313.932 35.6228,-324.484 41.994,-321.584"/>
</g>
<!-- 1642&#45;&gt;365 -->
<g id="edge13" class="edge"><title>1642&#45;&gt;365</title>
<path fill="none" stroke="red" stroke-width="0.623347" d="M69.8966,-352.847C79.3965,-322.555 96.1923,-269.001 106.605,-235.798"/>
<polygon fill="red" stroke="red" stroke-width="0.623347" points="109.964,-236.785 109.617,-226.195 103.285,-234.69 109.964,-236.785"/>
</g>
<!-- 365&#45;&gt;control -->
<g id="edge2" class="edge"><title>365&#45;&gt;control</title>
<path fill="none" stroke="green" stroke-width="0.38141" d="M131.012,-190.433C144.748,-177.644 165.294,-158.515 182.09,-142.878"/>
<polygon fill="green" stroke="green" stroke-width="0.38141" points="184.571,-145.351 189.505,-135.975 179.801,-140.227 184.571,-145.351"/>
</g>
<!-- 365&#45;&gt;997 -->
<g id="edge5" class="edge"><title>365&#45;&gt;997</title>
<path fill="none" stroke="green" stroke-width="0.269705" d="M115.749,-184.129C115.749,-173.078 115.749,-159.222 115.749,-146.91"/>
<polygon fill="green" stroke="green" stroke-width="0.269705" points="119.249,-146.599 115.749,-136.599 112.249,-146.599 119.249,-146.599"/>
</g>
<!-- 1495&#45;&gt;1891 -->
<g id="edge24" class="edge"><title>1495&#45;&gt;1891</title>
<path fill="none" stroke="green" stroke-width="0.214298" d="M134.699,-446.208C151.403,-433.051 175.93,-413.73 194.696,-398.948"/>
<polygon fill="green" stroke="green" stroke-width="0.214298" points="196.915,-401.655 202.605,-392.718 192.583,-396.157 196.915,-401.655"/>
</g>
<!-- 1495&#45;&gt;1642 -->
<g id="edge12" class="edge"><title>1495&#45;&gt;1642</title>
<path fill="none" stroke="green" stroke-width="0.329362" d="M102.919,-440.923C96.3921,-430.641 88.3417,-417.958 81.1658,-406.653"/>
<polygon fill="green" stroke="green" stroke-width="0.329362" points="83.9582,-404.521 75.6441,-397.954 78.0482,-408.272 83.9582,-404.521"/>
</g>
<!-- 1495&#45;&gt;365 -->
<g id="edge9" class="edge"><title>1495&#45;&gt;365</title>
<path fill="none" stroke="red" stroke-width="0.115722" d="M115.749,-437.194C115.749,-390.755 115.749,-288.519 115.749,-237.239"/>
<polygon fill="red" stroke="red" stroke-width="0.115722" points="119.249,-237.108 115.749,-227.108 112.249,-237.108 119.249,-237.108"/>
</g>
<!-- 760&#45;&gt;control -->
<g id="edge4" class="edge"><title>760&#45;&gt;control</title>
<path fill="none" stroke="red" stroke-width="0.231894" d="M262.711,-188.007C254.555,-176.735 243.518,-161.482 233.713,-147.933"/>
<polygon fill="red" stroke="red" stroke-width="0.231894" points="236.503,-145.817 227.805,-139.767 230.832,-149.921 236.503,-145.817"/>
</g>
<!-- 1098 -->
<g id="node15" class="node"><title>1098</title>
<ellipse fill="none" stroke="black" cx="198.749" cy="-24.7487" rx="25" ry="25"/>
<text text-anchor="middle" x="198.749" y="-22.5487" font-family="Times New Roman,serif" font-size="9.00">1098</text>
</g>
<!-- 760&#45;&gt;1098 -->
<g id="edge23" class="edge"><title>760&#45;&gt;1098</title>
<path fill="none" stroke="green" stroke-width="0.550986" d="M273.545,-184.257C271.419,-159.705 265.593,-117.745 249.749,-85.4975 243.279,-72.3295 233.24,-59.6776 223.775,-49.4333"/>
<polygon fill="green" stroke="green" stroke-width="0.550986" points="226.174,-46.8781 216.717,-42.1 221.13,-51.7322 226.174,-46.8781"/>
</g>
<!-- 760&#45;&gt;1182 -->
<g id="edge10" class="edge"><title>760&#45;&gt;1182</title>
<path fill="none" stroke="red" stroke-width="0.1291" d="M289.28,-190.038C302.621,-176.629 322.651,-156.497 338.429,-140.64"/>
<polygon fill="red" stroke="red" stroke-width="0.1291" points="341.213,-142.804 345.785,-133.246 336.25,-137.867 341.213,-142.804"/>
</g>
<!-- 1785&#45;&gt;control -->
<g id="edge21" class="edge"><title>1785&#45;&gt;control</title>
<path fill="none" stroke="red" stroke-width="0.574338" d="M210.749,-180.475C210.749,-172.693 210.749,-163.86 210.749,-155.288"/>
<polygon fill="red" stroke="red" stroke-width="0.574338" points="214.249,-155.05 210.749,-145.05 207.249,-155.05 214.249,-155.05"/>
</g>
<!-- 1695&#45;&gt;365 -->
<g id="edge18" class="edge"><title>1695&#45;&gt;365</title>
<path fill="none" stroke="red" stroke-width="0.472012" d="M155.919,-269.928C148.79,-258.698 139.844,-244.604 132.205,-232.569"/>
<polygon fill="red" stroke="red" stroke-width="0.472012" points="134.984,-230.416 126.67,-223.849 129.074,-234.167 134.984,-230.416"/>
</g>
<!-- 997&#45;&gt;1098 -->
<g id="edge6" class="edge"><title>997&#45;&gt;1098</title>
<path fill="none" stroke="green" stroke-width="0.245998" d="M129.829,-99.1921C142.309,-85.8926 160.778,-66.2115 175.457,-50.5696"/>
<polygon fill="green" stroke="green" stroke-width="0.245998" points="178.024,-52.9482 182.315,-43.261 172.92,-48.1581 178.024,-52.9482"/>
</g>
<!-- 1662 -->
<g id="node18" class="node"><title>1662</title>
<ellipse fill="none" stroke="black" cx="355.749" cy="-462.136" rx="25" ry="25"/>
<text text-anchor="middle" x="355.749" y="-459.936" font-family="Times New Roman,serif" font-size="9.00">1662</text>
</g>
<!-- 1662&#45;&gt;1668 -->
<g id="edge14" class="edge"><title>1662&#45;&gt;1668</title>
<path fill="none" stroke="red" stroke-width="0.722898" d="M355.749,-436.985C355.749,-429.041 355.749,-420.056 355.749,-411.526"/>
<polygon fill="red" stroke="red" stroke-width="0.722898" points="359.249,-411.446 355.749,-401.446 352.249,-411.446 359.249,-411.446"/>
</g>
</g>
</svg>
