<?xml version="1.0" encoding="UTF-8" standalone="no"?>
<!DOCTYPE svg PUBLIC "-//W3C//DTD SVG 1.1//EN"
 "http://www.w3.org/Graphics/SVG/1.1/DTD/svg11.dtd">
<!-- Generated by graphviz version 2.38.0 (20140413.2041)
 -->
<!-- Title: %3 Pages: 1 -->
<svg width="455pt" height="549pt"
 viewBox="0.00 0.00 455.50 548.88" xmlns="http://www.w3.org/2000/svg" xmlns:xlink="http://www.w3.org/1999/xlink">
<g id="graph0" class="graph" transform="scale(1 1) rotate(0) translate(4 544.884)">
<title>%3</title>
<polygon fill="white" stroke="none" points="-4,4 -4,-544.884 451.497,-544.884 451.497,4 -4,4"/>
<!-- x -->
<g id="node1" class="node"><title>x</title>
<polygon fill="lightgray" stroke="black" points="185.749,-540.884 165.749,-540.884 165.749,-522.884 185.749,-522.884 185.749,-540.884"/>
<text text-anchor="middle" x="175.749" y="-529.684" font-family="Times New Roman,serif" font-size="9.00">x</text>
</g>
<!-- dx -->
<g id="node2" class="node"><title>dx</title>
<polygon fill="lightgray" stroke="black" points="274.249,-300.141 249.249,-300.141 249.249,-282.141 274.249,-282.141 274.249,-300.141"/>
<text text-anchor="middle" x="261.749" y="-288.941" font-family="Times New Roman,serif" font-size="9.00">dx</text>
</g>
<!-- 760 -->
<g id="node16" class="node"><title>760</title>
<ellipse fill="white" stroke="black" cx="251.749" cy="-205.643" rx="21.4286" ry="21.4286"/>
<text text-anchor="middle" x="251.749" y="-203.443" font-family="Times New Roman,serif" font-size="9.00">760</text>
</g>
<!-- dx&#45;&gt;760 -->
<g id="edge3" class="edge"><title>dx&#45;&gt;760</title>
<path fill="none" stroke="green" stroke-width="0.558167" d="M260.79,-282.135C259.555,-271.822 257.337,-253.304 255.407,-237.19"/>
<polygon fill="green" stroke="green" stroke-width="0.558167" points="258.858,-236.572 254.194,-227.059 251.908,-237.404 258.858,-236.572"/>
</g>
<!-- 1785 -->
<g id="node17" class="node"><title>1785</title>
<ellipse fill="white" stroke="black" cx="185.749" cy="-205.643" rx="25" ry="25"/>
<text text-anchor="middle" x="185.749" y="-203.443" font-family="Times New Roman,serif" font-size="9.00">1785</text>
</g>
<!-- dx&#45;&gt;1785 -->
<g id="edge20" class="edge"><title>dx&#45;&gt;1785</title>
<path fill="none" stroke="green" stroke-width="0.210652" d="M254.403,-281.751C250.39,-277.189 245.32,-271.459 240.749,-266.392 230.413,-254.936 218.863,-242.356 209.026,-231.706"/>
<polygon fill="green" stroke="green" stroke-width="0.210652" points="211.567,-229.3 202.207,-224.336 206.429,-234.053 211.567,-229.3"/>
</g>
<!-- theta -->
<g id="node3" class="node"><title>theta</title>
<polygon fill="lightgray" stroke="black" points="239.249,-540.884 204.249,-540.884 204.249,-522.884 239.249,-522.884 239.249,-540.884"/>
<text text-anchor="middle" x="221.749" y="-529.684" font-family="Times New Roman,serif" font-size="9.00">theta</text>
</g>
<!-- 1 -->
<g id="node5" class="node"><title>1</title>
<ellipse fill="lightblue" stroke="black" cx="355.749" cy="-462.136" rx="14.7" ry="14.7"/>
<text text-anchor="middle" x="355.749" y="-459.936" font-family="Times New Roman,serif" font-size="9.00">1</text>
</g>
<!-- theta&#45;&gt;1 -->
<g id="edge1" class="edge"><title>theta&#45;&gt;1</title>
<path fill="none" stroke="red" stroke-width="2.74128" d="M239.549,-523.36C258.86,-515.032 290.452,-500.923 316.749,-486.884 322.807,-483.65 329.23,-479.886 335.079,-476.32"/>
<polygon fill="red" stroke="red" stroke-width="2.74128" points="337.015,-479.237 343.66,-470.985 333.319,-473.292 337.015,-479.237"/>
</g>
<!-- 1642 -->
<g id="node12" class="node"><title>1642</title>
<ellipse fill="white" stroke="black" cx="62.7487" cy="-376.638" rx="25" ry="25"/>
<text text-anchor="middle" x="62.7487" y="-374.438" font-family="Times New Roman,serif" font-size="9.00">1642</text>
</g>
<!-- theta&#45;&gt;1642 -->
<g id="edge26" class="edge"><title>theta&#45;&gt;1642</title>
<path fill="none" stroke="red" stroke-width="0.143008" d="M204.045,-524.846C174.072,-514.498 115.878,-493.822 108.749,-486.884 87.714,-466.414 75.8393,-434.844 69.447,-410.896"/>
<polygon fill="red" stroke="red" stroke-width="0.143008" points="72.8354,-410.018 67.0324,-401.153 66.041,-411.702 72.8354,-410.018"/>
</g>
<!-- 1495 -->
<g id="node15" class="node"><title>1495</title>
<ellipse fill="white" stroke="black" cx="142.749" cy="-462.136" rx="25" ry="25"/>
<text text-anchor="middle" x="142.749" y="-459.936" font-family="Times New Roman,serif" font-size="9.00">1495</text>
</g>
<!-- theta&#45;&gt;1495 -->
<g id="edge8" class="edge"><title>theta&#45;&gt;1495</title>
<path fill="none" stroke="green" stroke-width="0.269535" d="M212.376,-522.847C201.755,-513.738 183.978,-498.493 169.045,-485.687"/>
<polygon fill="green" stroke="green" stroke-width="0.269535" points="170.975,-482.731 161.106,-478.878 166.418,-488.045 170.975,-482.731"/>
</g>
<!-- 1182 -->
<g id="node18" class="node"><title>1182</title>
<ellipse fill="white" stroke="black" cx="300.749" cy="-115.196" rx="25" ry="25"/>
<text text-anchor="middle" x="300.749" y="-112.996" font-family="Times New Roman,serif" font-size="9.00">1182</text>
</g>
<!-- theta&#45;&gt;1182 -->
<g id="edge11" class="edge"><title>theta&#45;&gt;1182</title>
<path fill="none" stroke="red" stroke-width="0.515182" d="M229.811,-522.725C250.299,-501.084 302.749,-439.63 302.749,-377.638 302.749,-377.638 302.749,-377.638 302.749,-290.141 302.749,-241.56 301.959,-185.352 301.372,-150.284"/>
<polygon fill="red" stroke="red" stroke-width="0.515182" points="304.869,-150.049 301.198,-140.111 297.87,-150.17 304.869,-150.049"/>
</g>
<!-- 1695 -->
<g id="node19" class="node"><title>1695</title>
<ellipse fill="white" stroke="black" cx="206.749" cy="-291.141" rx="25" ry="25"/>
<text text-anchor="middle" x="206.749" y="-288.941" font-family="Times New Roman,serif" font-size="9.00">1695</text>
</g>
<!-- theta&#45;&gt;1695 -->
<g id="edge17" class="edge"><title>theta&#45;&gt;1695</title>
<path fill="none" stroke="red" stroke-width="0.167891" d="M221.232,-522.666C219.301,-491.932 212.435,-382.64 208.894,-326.29"/>
<polygon fill="red" stroke="red" stroke-width="0.167891" points="212.374,-325.851 208.253,-316.09 205.387,-326.29 212.374,-325.851"/>
</g>
<!-- control -->
<g id="node4" class="node"><title>control</title>
<ellipse fill="lightblue" stroke="black" cx="185.749" cy="-115.196" rx="29.8983" ry="29.8983"/>
<text text-anchor="middle" x="185.749" y="-112.996" font-family="Times New Roman,serif" font-size="9.00">control</text>
</g>
<!-- 1668 -->
<g id="node7" class="node"><title>1668</title>
<ellipse fill="white" stroke="black" cx="422.749" cy="-376.638" rx="25" ry="25"/>
<text text-anchor="middle" x="422.749" y="-374.438" font-family="Times New Roman,serif" font-size="9.00">1668</text>
</g>
<!-- 1&#45;&gt;1668 -->
<g id="edge19" class="edge"><title>1&#45;&gt;1668</title>
<path fill="none" stroke="green" stroke-width="0.235846" d="M364.785,-449.875C374.067,-438.307 388.86,-419.872 401.177,-404.521"/>
<polygon fill="green" stroke="green" stroke-width="0.235846" points="404.187,-406.363 407.715,-396.373 398.727,-401.982 404.187,-406.363"/>
</g>
<!-- 1416 -->
<g id="node9" class="node"><title>1416</title>
<ellipse fill="white" stroke="black" cx="355.749" cy="-376.638" rx="25" ry="25"/>
<text text-anchor="middle" x="355.749" y="-374.438" font-family="Times New Roman,serif" font-size="9.00">1416</text>
</g>
<!-- 1&#45;&gt;1416 -->
<g id="edge7" class="edge"><title>1&#45;&gt;1416</title>
<path fill="none" stroke="red" stroke-width="0.559326" d="M355.749,-446.971C355.749,-437.302 355.749,-424.06 355.749,-411.738"/>
<polygon fill="red" stroke="red" stroke-width="0.559326" points="359.249,-411.703 355.749,-401.703 352.249,-411.703 359.249,-411.703"/>
</g>
<!-- 1891 -->
<g id="node6" class="node"><title>1891</title>
<ellipse fill="white" stroke="black" cx="168.749" cy="-376.638" rx="25" ry="25"/>
<text text-anchor="middle" x="168.749" y="-374.438" font-family="Times New Roman,serif" font-size="9.00">1891</text>
</g>
<!-- 1891&#45;&gt;1785 -->
<g id="edge25" class="edge"><title>1891&#45;&gt;1785</title>
<path fill="none" stroke="green" stroke-width="0.546883" d="M168.407,-351.671C168.379,-329.471 169.069,-295.578 172.749,-266.392 173.856,-257.611 175.621,-248.212 177.498,-239.529"/>
<polygon fill="green" stroke="green" stroke-width="0.546883" points="180.918,-240.271 179.719,-229.745 174.092,-238.721 180.918,-240.271"/>
</g>
<!-- 997 -->
<g id="node8" class="node"><title>997</title>
<ellipse fill="white" stroke="black" cx="115.749" cy="-115.196" rx="21.4286" ry="21.4286"/>
<text text-anchor="middle" x="115.749" y="-112.996" font-family="Times New Roman,serif" font-size="9.00">997</text>
</g>
<!-- 1098 -->
<g id="node11" class="node"><title>1098</title>
<ellipse fill="white" stroke="black" cx="180.749" cy="-24.7487" rx="25" ry="25"/>
<text text-anchor="middle" x="180.749" y="-22.5487" font-family="Times New Roman,serif" font-size="9.00">1098</text>
</g>
<!-- 997&#45;&gt;1098 -->
<g id="edge6" class="edge"><title>997&#45;&gt;1098</title>
<path fill="none" stroke="green" stroke-width="0.245998" d="M127.975,-97.5597C137.136,-85.094 149.875,-67.7592 160.542,-53.2442"/>
<polygon fill="green" stroke="green" stroke-width="0.245998" points="163.439,-55.2127 166.541,-45.082 157.798,-51.0674 163.439,-55.2127"/>
</g>
<!-- 1687 -->
<g id="node10" class="node"><title>1687</title>
<ellipse fill="white" stroke="black" cx="24.7487" cy="-291.141" rx="25" ry="25"/>
<text text-anchor="middle" x="24.7487" y="-288.941" font-family="Times New Roman,serif" font-size="9.00">1687</text>
</g>
<!-- 1687&#45;&gt;997 -->
<g id="edge22" class="edge"><title>1687&#45;&gt;997</title>
<path fill="none" stroke="red" stroke-width="0.450718" d="M35.9071,-268.812C52.4355,-237.218 83.4185,-177.995 101.545,-143.346"/>
<polygon fill="red" stroke="red" stroke-width="0.450718" points="104.76,-144.751 106.294,-134.268 98.5575,-141.506 104.76,-144.751"/>
</g>
<!-- 365 -->
<g id="node14" class="node"><title>365</title>
<ellipse fill="white" stroke="black" cx="115.749" cy="-205.643" rx="21.4286" ry="21.4286"/>
<text text-anchor="middle" x="115.749" y="-203.443" font-family="Times New Roman,serif" font-size="9.00">365</text>
</g>
<!-- 1687&#45;&gt;365 -->
<g id="edge16" class="edge"><title>1687&#45;&gt;365</title>
<path fill="none" stroke="green" stroke-width="0.469921" d="M42.7274,-273.644C57.1068,-260.45 77.3604,-241.867 92.8907,-227.617"/>
<polygon fill="green" stroke="green" stroke-width="0.469921" points="95.5234,-229.951 100.525,-220.611 90.7908,-224.793 95.5234,-229.951"/>
</g>
<!-- 1642&#45;&gt;1687 -->
<g id="edge15" class="edge"><title>1642&#45;&gt;1687</title>
<path fill="none" stroke="green" stroke-width="0.317105" d="M52.7647,-353.7C48.532,-344.4 43.5222,-333.392 38.9178,-323.274"/>
<polygon fill="green" stroke="green" stroke-width="0.317105" points="41.994,-321.584 34.6661,-313.932 35.6228,-324.484 41.994,-321.584"/>
</g>
<!-- 1642&#45;&gt;365 -->
<g id="edge13" class="edge"><title>1642&#45;&gt;365</title>
<path fill="none" stroke="red" stroke-width="0.623347" d="M69.8966,-352.847C79.3965,-322.555 96.1923,-269.001 106.605,-235.798"/>
<polygon fill="red" stroke="red" stroke-width="0.623347" points="109.964,-236.785 109.617,-226.195 103.285,-234.69 109.964,-236.785"/>
</g>
<!-- 1662 -->
<g id="node13" class="node"><title>1662</title>
<ellipse fill="white" stroke="black" cx="422.749" cy="-462.136" rx="25" ry="25"/>
<text text-anchor="middle" x="422.749" y="-459.936" font-family="Times New Roman,serif" font-size="9.00">1662</text>
</g>
<!-- 1662&#45;&gt;1668 -->
<g id="edge14" class="edge"><title>1662&#45;&gt;1668</title>
<path fill="none" stroke="red" stroke-width="0.722898" d="M422.749,-436.985C422.749,-429.041 422.749,-420.056 422.749,-411.526"/>
<polygon fill="red" stroke="red" stroke-width="0.722898" points="426.249,-411.446 422.749,-401.446 419.249,-411.446 426.249,-411.446"/>
</g>
<!-- 365&#45;&gt;control -->
<g id="edge2" class="edge"><title>365&#45;&gt;control</title>
<path fill="none" stroke="green" stroke-width="0.38141" d="M128.588,-188.421C137.76,-176.831 150.382,-160.883 161.432,-146.92"/>
<polygon fill="green" stroke="green" stroke-width="0.38141" points="164.258,-148.99 167.719,-138.977 158.769,-144.646 164.258,-148.99"/>
</g>
<!-- 365&#45;&gt;997 -->
<g id="edge5" class="edge"><title>365&#45;&gt;997</title>
<path fill="none" stroke="green" stroke-width="0.269705" d="M115.749,-184.129C115.749,-173.078 115.749,-159.222 115.749,-146.91"/>
<polygon fill="green" stroke="green" stroke-width="0.269705" points="119.249,-146.599 115.749,-136.599 112.249,-146.599 119.249,-146.599"/>
</g>
<!-- 1495&#45;&gt;1891 -->
<g id="edge24" class="edge"><title>1495&#45;&gt;1891</title>
<path fill="none" stroke="green" stroke-width="0.214298" d="M149.853,-438.32C152.548,-429.667 155.67,-419.639 158.592,-410.257"/>
<polygon fill="green" stroke="green" stroke-width="0.214298" points="162.021,-411.015 161.653,-400.427 155.338,-408.934 162.021,-411.015"/>
</g>
<!-- 1495&#45;&gt;1642 -->
<g id="edge12" class="edge"><title>1495&#45;&gt;1642</title>
<path fill="none" stroke="green" stroke-width="0.329362" d="M125.783,-443.428C114.357,-431.503 99.1281,-415.608 86.5012,-402.429"/>
<polygon fill="green" stroke="green" stroke-width="0.329362" points="88.8614,-399.833 79.4159,-395.034 83.8069,-404.676 88.8614,-399.833"/>
</g>
<!-- 1495&#45;&gt;365 -->
<g id="edge9" class="edge"><title>1495&#45;&gt;365</title>
<path fill="none" stroke="red" stroke-width="0.115722" d="M139.4,-437.606C137.887,-426.614 136.132,-413.343 134.749,-401.387 128.022,-343.244 121.743,-275.149 118.357,-236.837"/>
<polygon fill="red" stroke="red" stroke-width="0.115722" points="121.841,-236.509 117.48,-226.854 114.868,-237.122 121.841,-236.509"/>
</g>
<!-- 760&#45;&gt;control -->
<g id="edge4" class="edge"><title>760&#45;&gt;control</title>
<path fill="none" stroke="red" stroke-width="0.231894" d="M239.335,-188.007C230.862,-176.652 219.374,-161.258 209.208,-147.634"/>
<polygon fill="red" stroke="red" stroke-width="0.231894" points="211.874,-145.354 203.088,-139.433 206.264,-149.54 211.874,-145.354"/>
</g>
<!-- 760&#45;&gt;1098 -->
<g id="edge23" class="edge"><title>760&#45;&gt;1098</title>
<path fill="none" stroke="green" stroke-width="0.550986" d="M249.73,-184.441C246.728,-160.07 239.74,-118.289 224.749,-85.4975 219.267,-73.5069 211.136,-61.5542 203.35,-51.5255"/>
<polygon fill="green" stroke="green" stroke-width="0.550986" points="205.958,-49.1837 196.957,-43.5953 200.508,-53.5772 205.958,-49.1837"/>
</g>
<!-- 760&#45;&gt;1182 -->
<g id="edge10" class="edge"><title>760&#45;&gt;1182</title>
<path fill="none" stroke="red" stroke-width="0.1291" d="M261.665,-186.745C268.117,-175.097 276.693,-159.618 284.166,-146.128"/>
<polygon fill="red" stroke="red" stroke-width="0.1291" points="287.34,-147.621 289.125,-137.178 281.217,-144.229 287.34,-147.621"/>
</g>
<!-- 1785&#45;&gt;control -->
<g id="edge21" class="edge"><title>1785&#45;&gt;control</title>
<path fill="none" stroke="red" stroke-width="0.574338" d="M185.749,-180.475C185.749,-172.693 185.749,-163.86 185.749,-155.288"/>
<polygon fill="red" stroke="red" stroke-width="0.574338" points="189.249,-155.05 185.749,-145.05 182.249,-155.05 189.249,-155.05"/>
</g>
<!-- 1695&#45;&gt;365 -->
<g id="edge18" class="edge"><title>1695&#45;&gt;365</title>
<path fill="none" stroke="red" stroke-width="0.472012" d="M188.77,-273.644C174.391,-260.45 154.137,-241.867 138.607,-227.617"/>
<polygon fill="red" stroke="red" stroke-width="0.472012" points="140.707,-224.793 130.972,-220.611 135.974,-229.951 140.707,-224.793"/>
</g>
</g>
</svg>
