<?xml version="1.0" encoding="UTF-8" standalone="no"?>
<!DOCTYPE svg PUBLIC "-//W3C//DTD SVG 1.1//EN"
 "http://www.w3.org/Graphics/SVG/1.1/DTD/svg11.dtd">
<!-- Generated by graphviz version 2.38.0 (20140413.2041)
 -->
<!-- Title: %3 Pages: 1 -->
<svg width="513pt" height="549pt"
 viewBox="0.00 0.00 513.50 548.88" xmlns="http://www.w3.org/2000/svg" xmlns:xlink="http://www.w3.org/1999/xlink">
<g id="graph0" class="graph" transform="scale(1 1) rotate(0) translate(4 544.884)">
<title>%3</title>
<polygon fill="white" stroke="none" points="-4,4 -4,-544.884 509.497,-544.884 509.497,4 -4,4"/>
<!-- x -->
<g id="node1" class="node"><title>x</title>
<polygon fill="lightgray" stroke="black" points="173.749,-540.884 153.749,-540.884 153.749,-522.884 173.749,-522.884 173.749,-540.884"/>
<text text-anchor="middle" x="163.749" y="-529.684" font-family="Times New Roman,serif" font-size="9.00">x</text>
</g>
<!-- dx -->
<g id="node2" class="node"><title>dx</title>
<polygon fill="lightgray" stroke="black" points="369.249,-300.141 344.249,-300.141 344.249,-282.141 369.249,-282.141 369.249,-300.141"/>
<text text-anchor="middle" x="356.749" y="-288.941" font-family="Times New Roman,serif" font-size="9.00">dx</text>
</g>
<!-- control -->
<g id="node4" class="node"><title>control</title>
<ellipse fill="lightblue" stroke="black" cx="280.749" cy="-115.196" rx="29.8983" ry="29.8983"/>
<text text-anchor="middle" x="280.749" y="-112.996" font-family="Times New Roman,serif" font-size="9.00">control</text>
</g>
<!-- dx&#45;&gt;control -->
<g id="edge4" class="edge"><title>dx&#45;&gt;control</title>
<path fill="none" stroke="red" stroke-width="0.366151" stroke-dasharray="1,5" d="M353.083,-281.751C343.015,-258.708 314.487,-193.415 296.412,-152.046"/>
<polygon fill="red" stroke="red" stroke-width="0.366151" points="299.603,-150.607 292.392,-142.845 293.189,-153.41 299.603,-150.607"/>
</g>
<!-- 1098 -->
<g id="node11" class="node"><title>1098</title>
<ellipse fill="white" stroke="black" cx="360.749" cy="-24.7487" rx="25" ry="25"/>
<text text-anchor="middle" x="360.749" y="-22.5487" font-family="Times New Roman,serif" font-size="9.00">1098</text>
</g>
<!-- dx&#45;&gt;1098 -->
<g id="edge9" class="edge"><title>dx&#45;&gt;1098</title>
<path fill="none" stroke="green" stroke-width="0.183622" stroke-dasharray="1,5" d="M363.344,-281.857C371.638,-270.855 385.437,-250.468 390.749,-230.392 406.626,-170.389 387.385,-98.1182 373.212,-57.501"/>
<polygon fill="green" stroke="green" stroke-width="0.183622" points="376.428,-56.1021 369.742,-47.8833 369.844,-58.4777 376.428,-56.1021"/>
</g>
<!-- 760 -->
<g id="node16" class="node"><title>760</title>
<ellipse fill="white" stroke="black" cx="360.749" cy="-205.643" rx="21.4286" ry="21.4286"/>
<text text-anchor="middle" x="360.749" y="-203.443" font-family="Times New Roman,serif" font-size="9.00">760</text>
</g>
<!-- dx&#45;&gt;760 -->
<g id="edge5" class="edge"><title>dx&#45;&gt;760</title>
<path fill="none" stroke="green" stroke-width="0.558167" d="M357.132,-282.135C357.626,-271.822 358.513,-253.304 359.285,-237.19"/>
<polygon fill="green" stroke="green" stroke-width="0.558167" points="362.788,-237.215 359.771,-227.059 355.796,-236.88 362.788,-237.215"/>
</g>
<!-- 1785 -->
<g id="node17" class="node"><title>1785</title>
<ellipse fill="white" stroke="black" cx="258.749" cy="-205.643" rx="25" ry="25"/>
<text text-anchor="middle" x="258.749" y="-203.443" font-family="Times New Roman,serif" font-size="9.00">1785</text>
</g>
<!-- dx&#45;&gt;1785 -->
<g id="edge23" class="edge"><title>dx&#45;&gt;1785</title>
<path fill="none" stroke="green" stroke-width="0.210652" d="M347.352,-282.135C333.142,-270.027 305.658,-246.61 285.05,-229.052"/>
<polygon fill="green" stroke="green" stroke-width="0.210652" points="287.136,-226.231 277.254,-222.41 282.596,-231.559 287.136,-226.231"/>
</g>
<!-- theta -->
<g id="node3" class="node"><title>theta</title>
<polygon fill="lightgray" stroke="black" points="227.249,-540.884 192.249,-540.884 192.249,-522.884 227.249,-522.884 227.249,-540.884"/>
<text text-anchor="middle" x="209.749" y="-529.684" font-family="Times New Roman,serif" font-size="9.00">theta</text>
</g>
<!-- 1 -->
<g id="node5" class="node"><title>1</title>
<ellipse fill="lightblue" stroke="black" cx="407.749" cy="-462.136" rx="14.7" ry="14.7"/>
<text text-anchor="middle" x="407.749" y="-459.936" font-family="Times New Roman,serif" font-size="9.00">1</text>
</g>
<!-- theta&#45;&gt;1 -->
<g id="edge1" class="edge"><title>theta&#45;&gt;1</title>
<path fill="none" stroke="red" stroke-width="2.74128" d="M227.424,-529.499C260.199,-526.287 331.786,-516.217 383.749,-486.884 386.429,-485.372 389.019,-483.48 391.443,-481.43"/>
<polygon fill="red" stroke="red" stroke-width="2.74128" points="394.196,-483.636 398.937,-474.161 389.322,-478.611 394.196,-483.636"/>
</g>
<!-- 1642 -->
<g id="node12" class="node"><title>1642</title>
<ellipse fill="white" stroke="black" cx="129.749" cy="-376.638" rx="25" ry="25"/>
<text text-anchor="middle" x="129.749" y="-374.438" font-family="Times New Roman,serif" font-size="9.00">1642</text>
</g>
<!-- theta&#45;&gt;1642 -->
<g id="edge30" class="edge"><title>theta&#45;&gt;1642</title>
<path fill="none" stroke="red" stroke-width="0.143008" d="M200.093,-522.673C190.931,-514.436 177.322,-500.979 168.749,-486.884 154.318,-463.161 144.118,-433.301 137.778,-410.797"/>
<polygon fill="red" stroke="red" stroke-width="0.143008" points="141.125,-409.763 135.136,-401.023 134.367,-411.59 141.125,-409.763"/>
</g>
<!-- 365 -->
<g id="node14" class="node"><title>365</title>
<ellipse fill="white" stroke="black" cx="163.749" cy="-205.643" rx="21.4286" ry="21.4286"/>
<text text-anchor="middle" x="163.749" y="-203.443" font-family="Times New Roman,serif" font-size="9.00">365</text>
</g>
<!-- theta&#45;&gt;365 -->
<g id="edge3" class="edge"><title>theta&#45;&gt;365</title>
<path fill="none" stroke="green" stroke-width="0.478541" stroke-dasharray="1,5" d="M208.165,-522.793C206.466,-513.981 203.744,-499.46 201.749,-486.884 187.35,-396.114 173.692,-288.256 167.389,-236.829"/>
<polygon fill="green" stroke="green" stroke-width="0.478541" points="170.843,-236.24 166.158,-226.738 163.894,-237.088 170.843,-236.24"/>
</g>
<!-- 1495 -->
<g id="node15" class="node"><title>1495</title>
<ellipse fill="white" stroke="black" cx="235.749" cy="-462.136" rx="25" ry="25"/>
<text text-anchor="middle" x="235.749" y="-459.936" font-family="Times New Roman,serif" font-size="9.00">1495</text>
</g>
<!-- theta&#45;&gt;1495 -->
<g id="edge11" class="edge"><title>theta&#45;&gt;1495</title>
<path fill="none" stroke="green" stroke-width="0.269535" d="M212.833,-522.847C215.532,-515.816 219.633,-505.129 223.624,-494.729"/>
<polygon fill="green" stroke="green" stroke-width="0.269535" points="226.899,-495.963 227.215,-485.373 220.364,-493.455 226.899,-495.963"/>
</g>
<!-- 1182 -->
<g id="node18" class="node"><title>1182</title>
<ellipse fill="white" stroke="black" cx="480.749" cy="-115.196" rx="25" ry="25"/>
<text text-anchor="middle" x="480.749" y="-112.996" font-family="Times New Roman,serif" font-size="9.00">1182</text>
</g>
<!-- theta&#45;&gt;1182 -->
<g id="edge14" class="edge"><title>theta&#45;&gt;1182</title>
<path fill="none" stroke="red" stroke-width="0.515182" d="M227.367,-529.219C273.823,-524.547 398.374,-510.12 431.749,-486.884 478.494,-454.341 498.749,-434.596 498.749,-377.638 498.749,-377.638 498.749,-377.638 498.749,-290.141 498.749,-241.166 491.602,-184.846 486.315,-149.883"/>
<polygon fill="red" stroke="red" stroke-width="0.515182" points="489.734,-149.095 484.744,-139.749 482.817,-150.168 489.734,-149.095"/>
</g>
<!-- 1695 -->
<g id="node19" class="node"><title>1695</title>
<ellipse fill="white" stroke="black" cx="24.7487" cy="-291.141" rx="25" ry="25"/>
<text text-anchor="middle" x="24.7487" y="-288.941" font-family="Times New Roman,serif" font-size="9.00">1695</text>
</g>
<!-- theta&#45;&gt;1695 -->
<g id="edge20" class="edge"><title>theta&#45;&gt;1695</title>
<path fill="none" stroke="red" stroke-width="0.167891" d="M193.4,-522.842C178.849,-515.1 157.625,-502.311 142.749,-486.884 94.7343,-437.094 57.2301,-364.39 38.2991,-323.355"/>
<polygon fill="red" stroke="red" stroke-width="0.167891" points="41.4293,-321.783 34.1083,-314.125 35.0555,-324.677 41.4293,-321.783"/>
</g>
<!-- 1668 -->
<g id="node7" class="node"><title>1668</title>
<ellipse fill="white" stroke="black" cx="378.749" cy="-376.638" rx="25" ry="25"/>
<text text-anchor="middle" x="378.749" y="-374.438" font-family="Times New Roman,serif" font-size="9.00">1668</text>
</g>
<!-- 1&#45;&gt;1668 -->
<g id="edge22" class="edge"><title>1&#45;&gt;1668</title>
<path fill="none" stroke="green" stroke-width="0.235846" d="M403.089,-447.72C399.542,-437.508 394.508,-423.013 389.937,-409.853"/>
<polygon fill="green" stroke="green" stroke-width="0.235846" points="393.152,-408.441 386.565,-400.143 386.54,-410.737 393.152,-408.441"/>
</g>
<!-- 1416 -->
<g id="node9" class="node"><title>1416</title>
<ellipse fill="white" stroke="black" cx="445.749" cy="-376.638" rx="25" ry="25"/>
<text text-anchor="middle" x="445.749" y="-374.438" font-family="Times New Roman,serif" font-size="9.00">1416</text>
</g>
<!-- 1&#45;&gt;1416 -->
<g id="edge10" class="edge"><title>1&#45;&gt;1416</title>
<path fill="none" stroke="red" stroke-width="0.559326" d="M413.686,-448.089C418.503,-437.505 425.49,-422.152 431.714,-408.477"/>
<polygon fill="red" stroke="red" stroke-width="0.559326" points="434.907,-409.91 435.864,-399.358 428.536,-407.01 434.907,-409.91"/>
</g>
<!-- 1891 -->
<g id="node6" class="node"><title>1891</title>
<ellipse fill="white" stroke="black" cx="311.749" cy="-376.638" rx="25" ry="25"/>
<text text-anchor="middle" x="311.749" y="-374.438" font-family="Times New Roman,serif" font-size="9.00">1891</text>
</g>
<!-- 1891&#45;&gt;1785 -->
<g id="edge29" class="edge"><title>1891&#45;&gt;1785</title>
<path fill="none" stroke="green" stroke-width="0.546883" d="M304.601,-352.847C295.434,-323.617 279.473,-272.725 269.01,-239.361"/>
<polygon fill="green" stroke="green" stroke-width="0.546883" points="272.285,-238.108 265.953,-229.613 265.606,-240.202 272.285,-238.108"/>
</g>
<!-- 997 -->
<g id="node8" class="node"><title>997</title>
<ellipse fill="white" stroke="black" cx="163.749" cy="-115.196" rx="21.4286" ry="21.4286"/>
<text text-anchor="middle" x="163.749" y="-112.996" font-family="Times New Roman,serif" font-size="9.00">997</text>
</g>
<!-- 997&#45;&gt;1098 -->
<g id="edge8" class="edge"><title>997&#45;&gt;1098</title>
<path fill="none" stroke="green" stroke-width="0.245998" d="M182.997,-105.554C216.967,-90.3026 287.855,-58.4757 329.109,-39.954"/>
<polygon fill="green" stroke="green" stroke-width="0.245998" points="330.736,-43.0603 338.425,-35.7714 327.869,-36.6743 330.736,-43.0603"/>
</g>
<!-- 1687 -->
<g id="node10" class="node"><title>1687</title>
<ellipse fill="white" stroke="black" cx="91.7487" cy="-291.141" rx="25" ry="25"/>
<text text-anchor="middle" x="91.7487" y="-288.941" font-family="Times New Roman,serif" font-size="9.00">1687</text>
</g>
<!-- 1687&#45;&gt;997 -->
<g id="edge26" class="edge"><title>1687&#45;&gt;997</title>
<path fill="none" stroke="red" stroke-width="0.450718" d="M99.9968,-267.366C108.164,-245.143 121.228,-210.458 133.749,-180.894 138.954,-168.603 145.096,-155.189 150.462,-143.779"/>
<polygon fill="red" stroke="red" stroke-width="0.450718" points="153.629,-145.269 154.75,-134.734 147.304,-142.271 153.629,-145.269"/>
</g>
<!-- 1687&#45;&gt;365 -->
<g id="edge19" class="edge"><title>1687&#45;&gt;365</title>
<path fill="none" stroke="green" stroke-width="0.469921" d="M107.728,-271.61C118.295,-259.355 132.236,-243.188 143.568,-230.047"/>
<polygon fill="green" stroke="green" stroke-width="0.469921" points="146.353,-232.177 150.233,-222.318 141.051,-227.605 146.353,-232.177"/>
</g>
<!-- 1642&#45;&gt;1687 -->
<g id="edge18" class="edge"><title>1642&#45;&gt;1687</title>
<path fill="none" stroke="green" stroke-width="0.317105" d="M119.765,-353.7C115.532,-344.4 110.522,-333.392 105.918,-323.274"/>
<polygon fill="green" stroke="green" stroke-width="0.317105" points="108.994,-321.584 101.666,-313.932 102.623,-324.484 108.994,-321.584"/>
</g>
<!-- 1642&#45;&gt;365 -->
<g id="edge16" class="edge"><title>1642&#45;&gt;365</title>
<path fill="none" stroke="red" stroke-width="0.623347" d="M134.476,-352.14C140.552,-321.942 151.105,-269.488 157.743,-236.496"/>
<polygon fill="red" stroke="red" stroke-width="0.623347" points="161.208,-237.015 159.75,-226.521 154.346,-235.634 161.208,-237.015"/>
</g>
<!-- 1662 -->
<g id="node13" class="node"><title>1662</title>
<ellipse fill="white" stroke="black" cx="349.749" cy="-462.136" rx="25" ry="25"/>
<text text-anchor="middle" x="349.749" y="-459.936" font-family="Times New Roman,serif" font-size="9.00">1662</text>
</g>
<!-- 1662&#45;&gt;1668 -->
<g id="edge17" class="edge"><title>1662&#45;&gt;1668</title>
<path fill="none" stroke="red" stroke-width="0.722898" d="M357.673,-438.32C360.735,-429.504 364.293,-419.259 367.604,-409.725"/>
<polygon fill="red" stroke="red" stroke-width="0.722898" points="370.96,-410.732 370.934,-400.138 364.347,-408.436 370.96,-410.732"/>
</g>
<!-- 365&#45;&gt;control -->
<g id="edge2" class="edge"><title>365&#45;&gt;control</title>
<path fill="none" stroke="green" stroke-width="0.38141" d="M180.264,-192.158C198.137,-178.647 227.063,-156.781 249.3,-139.97"/>
<polygon fill="green" stroke="green" stroke-width="0.38141" points="251.592,-142.625 257.458,-133.803 247.371,-137.041 251.592,-142.625"/>
</g>
<!-- 365&#45;&gt;997 -->
<g id="edge7" class="edge"><title>365&#45;&gt;997</title>
<path fill="none" stroke="green" stroke-width="0.269705" d="M163.749,-184.129C163.749,-173.078 163.749,-159.222 163.749,-146.91"/>
<polygon fill="green" stroke="green" stroke-width="0.269705" points="167.249,-146.599 163.749,-136.599 160.249,-146.599 167.249,-146.599"/>
</g>
<!-- 1495&#45;&gt;1891 -->
<g id="edge28" class="edge"><title>1495&#45;&gt;1891</title>
<path fill="none" stroke="green" stroke-width="0.214298" d="M252.24,-443.018C262.869,-431.34 276.845,-415.985 288.582,-403.09"/>
<polygon fill="green" stroke="green" stroke-width="0.214298" points="291.408,-405.185 295.551,-395.434 286.232,-400.473 291.408,-405.185"/>
</g>
<!-- 1495&#45;&gt;1642 -->
<g id="edge15" class="edge"><title>1495&#45;&gt;1642</title>
<path fill="none" stroke="green" stroke-width="0.329362" d="M216.798,-446.208C200.095,-433.051 175.567,-413.73 156.801,-398.948"/>
<polygon fill="green" stroke="green" stroke-width="0.329362" points="158.914,-396.157 148.893,-392.718 154.583,-401.655 158.914,-396.157"/>
</g>
<!-- 1495&#45;&gt;365 -->
<g id="edge12" class="edge"><title>1495&#45;&gt;365</title>
<path fill="none" stroke="red" stroke-width="0.115722" d="M233.373,-437.42C229.114,-400.102 218.512,-325.804 196.749,-266.392 192.505,-254.806 186.254,-242.76 180.33,-232.546"/>
<polygon fill="red" stroke="red" stroke-width="0.115722" points="183.196,-230.519 175.05,-223.745 177.194,-234.121 183.196,-230.519"/>
</g>
<!-- 1495&#45;&gt;1785 -->
<g id="edge25" class="edge"><title>1495&#45;&gt;1785</title>
<path fill="none" stroke="green" stroke-width="0.187388" stroke-dasharray="1,5" d="M237.913,-437.194C242.024,-391.7 250.975,-292.656 255.695,-240.431"/>
<polygon fill="green" stroke="green" stroke-width="0.187388" points="259.193,-240.611 256.607,-230.336 252.221,-239.981 259.193,-240.611"/>
</g>
<!-- 760&#45;&gt;control -->
<g id="edge6" class="edge"><title>760&#45;&gt;control</title>
<path fill="none" stroke="red" stroke-width="0.231894" d="M346.814,-189.237C335.936,-177.21 320.502,-160.146 307.287,-145.536"/>
<polygon fill="red" stroke="red" stroke-width="0.231894" points="309.52,-142.788 300.217,-137.719 304.329,-147.484 309.52,-142.788"/>
</g>
<!-- 760&#45;&gt;1098 -->
<g id="edge27" class="edge"><title>760&#45;&gt;1098</title>
<path fill="none" stroke="green" stroke-width="0.550986" d="M360.749,-184.122C360.749,-153.8 360.749,-96.6649 360.749,-59.947"/>
<polygon fill="green" stroke="green" stroke-width="0.550986" points="364.249,-59.7156 360.749,-49.7157 357.249,-59.7157 364.249,-59.7156"/>
</g>
<!-- 760&#45;&gt;1182 -->
<g id="edge13" class="edge"><title>760&#45;&gt;1182</title>
<path fill="none" stroke="red" stroke-width="0.1291" d="M377.434,-192.345C396.935,-177.972 429.508,-153.964 452.869,-136.745"/>
<polygon fill="red" stroke="red" stroke-width="0.1291" points="455.044,-139.49 461.017,-130.739 450.891,-133.855 455.044,-139.49"/>
</g>
<!-- 1785&#45;&gt;control -->
<g id="edge24" class="edge"><title>1785&#45;&gt;control</title>
<path fill="none" stroke="red" stroke-width="0.574338" d="M264.529,-181.405C266.605,-173.06 269.003,-163.418 271.308,-154.151"/>
<polygon fill="red" stroke="red" stroke-width="0.574338" points="274.735,-154.871 273.753,-144.322 267.942,-153.181 274.735,-154.871"/>
</g>
<!-- 1695&#45;&gt;365 -->
<g id="edge21" class="edge"><title>1695&#45;&gt;365</title>
<path fill="none" stroke="red" stroke-width="0.472012" d="M44.3965,-275.462C48.7328,-272.375 53.3471,-269.204 57.7487,-266.392 83.6454,-249.846 114.339,-232.811 136.015,-221.186"/>
<polygon fill="red" stroke="red" stroke-width="0.472012" points="137.821,-224.19 145.001,-216.399 134.53,-218.012 137.821,-224.19"/>
</g>
</g>
</svg>
